<svg width="19" height="17" viewBox="0 0 19 17" fill="none" xmlns="http://www.w3.org/2000/svg">
<path d="M17.0625 0.951904H1.93751C1.57284 0.951904 1.2231 1.09019 0.96524 1.33633C0.707378 1.58247 0.562512 1.91631 0.562512 2.2644V15.3894C0.561812 15.5014 0.591527 15.6116 0.64876 15.7094C0.705992 15.8072 0.788788 15.8891 0.889075 15.9472C0.988555 16.0069 1.1024 16.0413 1.21975 16.047C1.3371 16.0528 1.45403 16.0297 1.55939 15.98L4.00001 14.807L6.44064 15.98C6.53715 16.0244 6.6429 16.0474 6.75001 16.0474C6.85713 16.0474 6.96287 16.0244 7.05939 15.98L9.50001 14.807L11.9406 15.98C12.0375 16.0233 12.1431 16.0457 12.25 16.0457C12.3569 16.0457 12.4625 16.0233 12.5594 15.98L15 14.807L17.4406 15.98C17.546 16.0297 17.6629 16.0528 17.7803 16.047C17.8976 16.0413 18.0115 16.0069 18.111 15.9472C18.2112 15.8891 18.294 15.8072 18.3513 15.7094C18.4085 15.6116 18.4382 15.5014 18.4375 15.3894V2.2644C18.4375 1.91631 18.2926 1.58247 18.0348 1.33633C17.7769 1.09019 17.4272 0.951904 17.0625 0.951904ZM17.0625 14.3312L15.3094 13.4863C15.2129 13.4419 15.1071 13.4189 15 13.4189C14.8929 13.4189 14.7872 13.4419 14.6906 13.4863L12.25 14.6593L9.80939 13.4863C9.71254 13.4431 9.60693 13.4207 9.50001 13.4207C9.3931 13.4207 9.28749 13.4431 9.19064 13.4863L6.75001 14.6593L4.30939 13.4863C4.21287 13.4419 4.10713 13.4189 4.00001 13.4189C3.8929 13.4189 3.78715 13.4419 3.69064 13.4863L1.93751 14.3312V2.2644H17.0625V14.3312ZM4.37814 11.3863C4.5428 11.4613 4.73153 11.4725 4.90464 11.4174C5.07774 11.3623 5.22171 11.2453 5.30626 11.091L5.79611 10.1394H9.07892L9.56876 11.091C9.6272 11.1996 9.71586 11.2907 9.82501 11.3544C9.93417 11.4181 10.0596 11.4518 10.1875 11.4519C10.2942 11.4497 10.3993 11.4274 10.4969 11.3863C10.6586 11.3056 10.7812 11.1681 10.8389 11.0029C10.8966 10.8377 10.8849 10.6575 10.8063 10.5003L8.05626 5.25034C7.9977 5.14188 7.90899 5.05091 7.79984 4.9874C7.6907 4.92389 7.56534 4.89029 7.43751 4.89029C7.30969 4.89029 7.18433 4.92389 7.07518 4.9874C6.96604 5.05091 6.87732 5.14188 6.81876 5.25034L4.06876 10.5003C3.99014 10.6575 3.97844 10.8377 4.03614 11.0029C4.09385 11.1681 4.21644 11.3056 4.37814 11.3863ZM7.43751 7.01401L8.39142 8.8269H6.48361L7.43751 7.01401ZM10.875 8.17065C10.875 7.99661 10.9474 7.82969 11.0764 7.70662C11.2053 7.58354 11.3802 7.5144 11.5625 7.5144H12.5938V6.53003C12.5938 6.35598 12.6662 6.18906 12.7951 6.06599C12.9241 5.94292 13.0989 5.87378 13.2813 5.87378C13.4636 5.87378 13.6385 5.94292 13.7674 6.06599C13.8963 6.18906 13.9688 6.35598 13.9688 6.53003V7.5144H15C15.1823 7.5144 15.3572 7.58354 15.4861 7.70662C15.6151 7.82969 15.6875 7.99661 15.6875 8.17065C15.6875 8.3447 15.6151 8.51162 15.4861 8.63469C15.3572 8.75776 15.1823 8.8269 15 8.8269H13.9688V9.81128C13.9688 9.98533 13.8963 10.1522 13.7674 10.2753C13.6385 10.3984 13.4636 10.4675 13.2813 10.4675C13.0989 10.4675 12.9241 10.3984 12.7951 10.2753C12.6662 10.1522 12.5938 9.98533 12.5938 9.81128V8.8269H11.5625C11.3802 8.8269 11.2053 8.75776 11.0764 8.63469C10.9474 8.51162 10.875 8.3447 10.875 8.17065Z" fill="black"/>
</svg>
