<svg width="43" height="40" viewBox="0 0 43 40" fill="none" xmlns="http://www.w3.org/2000/svg">
<path d="M9.40626 8.625C7.86193 8.625 6.38084 9.18142 5.28884 10.1718C4.19683 11.1623 3.58334 12.5056 3.58334 13.9062V15.9375H39.4167V13.9062C39.4167 13.2127 39.2661 12.526 38.9734 11.8852C38.6808 11.2445 38.2519 10.6623 37.7112 10.1718C37.1705 9.68143 36.5286 9.29242 35.8221 9.02701C35.1156 8.7616 34.3584 8.625 33.5938 8.625H9.40626ZM39.4167 18.375H3.58334V26.0938C3.58334 27.4944 4.19683 28.8377 5.28884 29.8282C6.38084 30.8186 7.86193 31.375 9.40626 31.375H33.5938C34.3584 31.375 35.1156 31.2384 35.8221 30.973C36.5286 30.7076 37.1705 30.3186 37.7112 29.8282C38.2519 29.3377 38.6808 28.7555 38.9734 28.1148C39.2661 27.474 39.4167 26.7873 39.4167 26.0938V18.375ZM28.2188 24.0625H32.6979C33.0543 24.0625 33.3961 24.1909 33.6481 24.4195C33.9001 24.648 34.0417 24.958 34.0417 25.2812C34.0417 25.6045 33.9001 25.9145 33.6481 26.143C33.3961 26.3716 33.0543 26.5 32.6979 26.5H28.2188C27.8624 26.5 27.5206 26.3716 27.2686 26.143C27.0166 25.9145 26.875 25.6045 26.875 25.2812C26.875 24.958 27.0166 24.648 27.2686 24.4195C27.5206 24.1909 27.8624 24.0625 28.2188 24.0625Z" fill="#006688"/>
</svg>
