<svg width="43" height="40" viewBox="0 0 81 71" fill="none" xmlns="http://www.w3.org/2000/svg">
<g filter="url(#filter0_d_10_525)">
<path d="M19.2155 26.1428L21.5213 18.1519C21.5375 18.0959 21.5552 18.0402 21.5743 17.985C21.5934 17.9298 21.6139 17.875 21.636 17.8207C21.658 17.7664 21.6814 17.7126 21.7063 17.6594C21.7311 17.6061 21.7574 17.5535 21.785 17.5015C21.8126 17.4494 21.8416 17.398 21.872 17.3473C21.9023 17.2966 21.934 17.2466 21.967 17.1973C22 17.1481 22.0343 17.0996 22.0698 17.0519C22.1054 17.0041 22.1422 16.9573 22.1802 16.9112C22.2183 16.8652 22.2575 16.8201 22.2979 16.7758C22.3384 16.7316 22.3799 16.6883 22.4227 16.6459C22.4654 16.6036 22.5092 16.5622 22.5541 16.5219C22.599 16.4815 22.6449 16.4422 22.6919 16.404C22.7389 16.3657 22.7869 16.3285 22.8358 16.2925C22.8847 16.2564 22.9346 16.2215 22.9854 16.1877C23.0362 16.1539 23.0879 16.1212 23.1404 16.0898C23.1929 16.0584 23.2462 16.0281 23.3003 15.9991C23.3544 15.9701 23.4093 15.9423 23.4649 15.9158C23.5205 15.8893 23.5767 15.8641 23.6336 15.8401C23.6905 15.8162 23.7481 15.7936 23.8062 15.7722C23.8643 15.7509 23.9229 15.7309 23.9821 15.7123C24.0413 15.6936 24.1009 15.6763 24.161 15.6604C24.2211 15.6445 24.2815 15.6299 24.3424 15.6167C24.4033 15.6036 24.4644 15.5918 24.5259 15.5814C24.5874 15.571 24.6491 15.562 24.711 15.5544C24.773 15.5469 24.8351 15.5407 24.8974 15.536C24.9597 15.5312 25.022 15.5279 25.0845 15.526C25.1469 15.5241 25.2094 15.5236 25.2719 15.5246C25.3344 15.5255 25.3968 15.5279 25.4591 15.5317C25.5215 15.5355 25.5837 15.5407 25.6458 15.5473C25.7079 15.554 25.7697 15.562 25.8314 15.5715C25.893 15.5809 25.9544 15.5918 26.0155 15.604C26.0766 15.6163 26.1373 15.6299 26.1976 15.6449L58.161 23.5977C58.2214 23.6127 58.2813 23.6291 58.3408 23.6469C58.4003 23.6646 58.4592 23.6837 58.5177 23.7042C58.5762 23.7246 58.6341 23.7464 58.6915 23.7694C58.7488 23.7925 58.8055 23.8169 58.8615 23.8425C58.9176 23.8682 58.9729 23.8951 59.0275 23.9233C59.0822 23.9515 59.136 23.9809 59.189 24.0116C59.2421 24.0422 59.2943 24.074 59.3457 24.1071C59.3971 24.1401 59.4476 24.1743 59.4971 24.2096C59.5467 24.2449 59.5953 24.2813 59.643 24.3189C59.6906 24.3564 59.7373 24.395 59.7829 24.4347C59.8285 24.4743 59.873 24.515 59.9164 24.5567C59.9599 24.5984 60.0022 24.6411 60.0434 24.6847C60.0846 24.7283 60.1247 24.7729 60.1635 24.8183C60.2024 24.8638 60.24 24.9101 60.2764 24.9572C60.3128 25.0044 60.3479 25.0524 60.3818 25.1011C60.4156 25.1499 60.4482 25.1994 60.4794 25.2496C60.5107 25.2999 60.5406 25.3508 60.5691 25.4024C60.5977 25.4541 60.6248 25.5063 60.6506 25.5591C60.6764 25.612 60.7008 25.6654 60.7237 25.7194C60.7467 25.7733 60.7682 25.8278 60.7883 25.8827C60.8084 25.9377 60.827 25.993 60.8442 26.0488C60.8614 26.1046 60.877 26.1608 60.8912 26.2173C60.9054 26.2738 60.9181 26.3306 60.9293 26.3877C60.9405 26.4448 60.9501 26.5021 60.9583 26.5596C60.9664 26.6171 60.9731 26.6748 60.9782 26.7326C60.9833 26.7905 60.9869 26.8484 60.9889 26.9064C60.991 26.9644 60.9915 27.0224 60.9905 27.0804C60.9894 27.1384 60.9869 27.1964 60.9828 27.2543C60.9787 27.3122 60.9731 27.3699 60.966 27.4276C60.9588 27.4852 60.9501 27.5427 60.94 27.5999C60.9298 27.6572 60.9181 27.7141 60.9049 27.7709C60.8917 27.8276 60.877 27.884 60.8609 27.94L58.555 35.9308C58.5388 35.9869 58.5212 36.0425 58.5021 36.0978C58.483 36.153 58.4624 36.2078 58.4404 36.2621C58.4184 36.3164 58.395 36.3702 58.3701 36.4234C58.3452 36.4767 58.319 36.5293 58.2914 36.5813C58.2637 36.6334 58.2347 36.6848 58.2044 36.7355C58.174 36.7862 58.1423 36.8362 58.1093 36.8854C58.0763 36.9347 58.0421 36.9832 58.0065 37.0309C57.9709 37.0786 57.9341 37.1255 57.8961 37.1716C57.8581 37.2176 57.8188 37.2627 57.7784 37.3069C57.738 37.3512 57.6964 37.3945 57.6537 37.4369C57.611 37.4792 57.5672 37.5206 57.5223 37.5609C57.4773 37.6013 57.4314 37.6406 57.3844 37.6788C57.3375 37.7171 57.2895 37.7543 57.2405 37.7903C57.1916 37.8264 57.1417 37.8613 57.091 37.8952C57.0401 37.9289 56.9885 37.9615 56.936 37.993C56.8835 38.0244 56.8301 38.0547 56.776 38.0836C56.7219 38.1127 56.6671 38.1404 56.6115 38.167C56.5559 38.1935 56.4996 38.2187 56.4427 38.2427C56.3858 38.2666 56.3283 38.2892 56.2702 38.3105C56.2121 38.3319 56.1534 38.3519 56.0942 38.3705C56.0351 38.3891 55.9755 38.4064 55.9153 38.4224C55.8553 38.4383 55.7948 38.4529 55.734 38.466C55.6731 38.4792 55.6119 38.491 55.5504 38.5014C55.489 38.5118 55.4273 38.5208 55.3653 38.5284C55.3034 38.5359 55.2412 38.5421 55.1789 38.5468C55.1167 38.5516 55.0543 38.5549 54.9919 38.5567C54.9294 38.5587 54.867 38.5592 54.8045 38.5582C54.742 38.5573 54.6796 38.5549 54.6172 38.5511C54.5549 38.5473 54.4927 38.5421 54.4306 38.5355C54.3685 38.5288 54.3066 38.5208 54.245 38.5113C54.1833 38.5018 54.1219 38.491 54.0609 38.4788C53.9998 38.4665 53.9391 38.4529 53.8787 38.4379L21.9154 30.4851C21.855 30.47 21.7951 30.4537 21.7356 30.4359C21.6761 30.4181 21.6171 30.399 21.5586 30.3786C21.5001 30.3582 21.4422 30.3364 21.3849 30.3134C21.3276 30.2903 21.2709 30.2659 21.2148 30.2402C21.1588 30.2146 21.1035 30.1877 21.0488 30.1595C20.9942 30.1313 20.9404 30.1019 20.8873 30.0712C20.8342 30.0406 20.782 30.0088 20.7306 29.9757C20.6793 29.9427 20.6288 29.9085 20.5792 29.8732C20.5296 29.8379 20.481 29.8014 20.4334 29.7639C20.3857 29.7264 20.3391 29.6878 20.2935 29.6481C20.2479 29.6084 20.2033 29.5678 20.1599 29.5261C20.1164 29.4844 20.0741 29.4417 20.0329 29.3981C19.9917 29.3545 19.9517 29.3099 19.9128 29.2645C19.874 29.219 19.8364 29.1727 19.8 29.1256C19.7636 29.0784 19.7285 29.0304 19.6946 28.9817C19.6607 28.9329 19.6282 28.8834 19.5969 28.8331C19.5657 28.7829 19.5358 28.732 19.5072 28.6804C19.4787 28.6287 19.4515 28.5765 19.4257 28.5237C19.3999 28.4708 19.3756 28.4174 19.3526 28.3634C19.3296 28.3095 19.3081 28.255 19.288 28.2001C19.2679 28.1451 19.2493 28.0898 19.2322 28.0339C19.215 27.9782 19.1993 27.922 19.1851 27.8655C19.1709 27.809 19.1583 27.7522 19.1471 27.6951C19.1359 27.638 19.1262 27.5807 19.1181 27.5232C19.1099 27.4657 19.1033 27.408 19.0982 27.3501C19.0931 27.2923 19.0895 27.2344 19.0874 27.1764C19.0854 27.1184 19.0849 27.0604 19.0859 27.0024C19.0869 26.9444 19.0895 26.8864 19.0936 26.8285C19.0977 26.7706 19.1033 26.7129 19.1104 26.6552C19.1175 26.5976 19.1262 26.5401 19.1364 26.4829C19.1466 26.4256 19.1583 26.3686 19.1714 26.3119C19.1846 26.2552 19.1993 26.1988 19.2155 26.1428Z" fill="url(#paint0_linear_10_525)"/>
</g>
<g filter="url(#filter1_d_10_525)">
<path d="M17.9091 48.1137V23.8864C17.9091 23.8284 17.9106 23.7704 17.9137 23.7124C17.9168 23.6545 17.9213 23.5966 17.9275 23.5389C17.9336 23.4811 17.9412 23.4236 17.9504 23.3662C17.9596 23.3088 17.9703 23.2516 17.9825 23.1947C17.9946 23.1378 18.0083 23.0812 18.0235 23.0249C18.0387 22.9686 18.0554 22.9127 18.0735 22.8572C18.0916 22.8017 18.1112 22.7466 18.1323 22.692C18.1533 22.6373 18.1758 22.5832 18.1997 22.5296C18.2236 22.476 18.249 22.423 18.2757 22.3705C18.3024 22.3181 18.3305 22.2663 18.3599 22.2151C18.3894 22.1639 18.4202 22.1134 18.4523 22.0637C18.4844 22.0139 18.5179 21.9649 18.5526 21.9166C18.5873 21.8684 18.6233 21.821 18.6605 21.7744C18.6977 21.7278 18.7361 21.682 18.7758 21.6372C18.8154 21.5923 18.8562 21.5484 18.8982 21.5054C18.9401 21.4624 18.9832 21.4204 19.0274 21.3794C19.0716 21.3384 19.1168 21.2984 19.1631 21.2594C19.2094 21.2204 19.2567 21.1825 19.305 21.1457C19.3533 21.1089 19.4026 21.0732 19.4528 21.0387C19.503 21.0041 19.554 20.9707 19.606 20.9385C19.658 20.9062 19.7107 20.8752 19.7643 20.8454C19.8179 20.8155 19.8723 20.7869 19.9274 20.7596C19.9825 20.7322 20.0383 20.7062 20.0948 20.6813C20.1513 20.6565 20.2084 20.633 20.2661 20.6108C20.3238 20.5886 20.3821 20.5677 20.441 20.5482C20.4998 20.5286 20.5591 20.5105 20.6189 20.4936C20.6787 20.4768 20.7389 20.4613 20.7995 20.4472C20.8601 20.4331 20.9211 20.4204 20.9824 20.4091C21.0437 20.3977 21.1052 20.3878 21.167 20.3793C21.2288 20.3708 21.2908 20.3637 21.353 20.358C21.4152 20.3523 21.4775 20.3481 21.5399 20.3452C21.6023 20.3424 21.6648 20.3409 21.7273 20.3409H59.2727C59.3352 20.3409 59.3977 20.3424 59.4601 20.3452C59.5225 20.3481 59.5848 20.3523 59.647 20.358C59.7092 20.3637 59.7712 20.3708 59.833 20.3793C59.8948 20.3878 59.9563 20.3977 60.0176 20.4091C60.0789 20.4204 60.1399 20.4331 60.2005 20.4472C60.2611 20.4613 60.3213 20.4768 60.3811 20.4936C60.4409 20.5105 60.5002 20.5286 60.559 20.5482C60.6179 20.5677 60.6761 20.5886 60.7339 20.6108C60.7916 20.633 60.8487 20.6565 60.9052 20.6813C60.9617 20.7062 61.0175 20.7322 61.0726 20.7596C61.1277 20.7869 61.1821 20.8155 61.2357 20.8454C61.2892 20.8752 61.342 20.9062 61.394 20.9385C61.4459 20.9707 61.497 21.0041 61.5472 21.0387C61.5974 21.0732 61.6467 21.1089 61.695 21.1457C61.7433 21.1825 61.7906 21.2204 61.8369 21.2594C61.8832 21.2984 61.9284 21.3384 61.9726 21.3794C62.0168 21.4204 62.0599 21.4624 62.1018 21.5054C62.1438 21.5484 62.1846 21.5923 62.2242 21.6372C62.2639 21.682 62.3023 21.7278 62.3395 21.7744C62.3767 21.821 62.4127 21.8684 62.4474 21.9166C62.4821 21.9649 62.5156 22.0139 62.5477 22.0637C62.5798 22.1134 62.6106 22.1639 62.64 22.2151C62.6695 22.2663 62.6976 22.3181 62.7243 22.3705C62.751 22.423 62.7764 22.476 62.8003 22.5296C62.8242 22.5832 62.8467 22.6373 62.8677 22.692C62.8888 22.7466 62.9084 22.8017 62.9265 22.8572C62.9446 22.9127 62.9613 22.9686 62.9765 23.0249C62.9917 23.0812 63.0054 23.1378 63.0175 23.1947C63.0297 23.2516 63.0404 23.3088 63.0496 23.3662C63.0588 23.4236 63.0664 23.4811 63.0725 23.5389C63.0786 23.5966 63.0832 23.6545 63.0863 23.7124C63.0894 23.7704 63.0909 23.8284 63.0909 23.8864V48.1137C63.0909 48.1717 63.0894 48.2297 63.0863 48.2876C63.0832 48.3456 63.0786 48.4034 63.0725 48.4612C63.0664 48.5189 63.0588 48.5765 63.0496 48.6339C63.0404 48.6913 63.0297 48.7484 63.0175 48.8053C63.0054 48.8623 62.9917 48.9189 62.9765 48.9752C62.9613 49.0314 62.9446 49.0873 62.9265 49.1429C62.9084 49.1984 62.8888 49.2534 62.8677 49.3081C62.8467 49.3627 62.8242 49.4168 62.8003 49.4705C62.7764 49.5241 62.751 49.5771 62.7243 49.6295C62.6976 49.682 62.6695 49.7338 62.64 49.785C62.6106 49.8362 62.5798 49.8866 62.5477 49.9364C62.5156 49.9861 62.4821 50.0352 62.4474 50.0834C62.4127 50.1317 62.3767 50.1791 62.3395 50.2257C62.3023 50.2723 62.2639 50.318 62.2242 50.3629C62.1846 50.4077 62.1438 50.4516 62.1018 50.4946C62.0599 50.5376 62.0168 50.5797 61.9726 50.6207C61.9284 50.6617 61.8832 50.7017 61.8369 50.7407C61.7906 50.7796 61.7433 50.8175 61.695 50.8544C61.6467 50.8912 61.5974 50.9268 61.5472 50.9614C61.497 50.996 61.4459 51.0294 61.394 51.0616C61.342 51.0938 61.2892 51.1249 61.2357 51.1547C61.1821 51.1845 61.1277 51.2131 61.0726 51.2405C61.0175 51.2678 60.9617 51.2939 60.9052 51.3187C60.8487 51.3435 60.7916 51.367 60.7339 51.3893C60.6761 51.4114 60.6179 51.4323 60.559 51.4519C60.5002 51.4714 60.4409 51.4896 60.3811 51.5064C60.3213 51.5233 60.2611 51.5388 60.2005 51.5529C60.1399 51.567 60.0789 51.5797 60.0176 51.591C59.9563 51.6023 59.8948 51.6122 59.833 51.6208C59.7712 51.6293 59.7092 51.6364 59.647 51.642C59.5848 51.6477 59.5225 51.652 59.4601 51.6549C59.3977 51.6577 59.3352 51.6591 59.2727 51.6591H21.7273C21.6648 51.6591 21.6023 51.6577 21.5399 51.6549C21.4775 51.652 21.4152 51.6477 21.353 51.642C21.2908 51.6364 21.2288 51.6293 21.167 51.6208C21.1052 51.6122 21.0437 51.6023 20.9824 51.591C20.9211 51.5797 20.8601 51.567 20.7995 51.5529C20.7389 51.5388 20.6787 51.5233 20.6189 51.5064C20.5591 51.4896 20.4998 51.4714 20.441 51.4519C20.3821 51.4323 20.3238 51.4114 20.2661 51.3893C20.2084 51.367 20.1513 51.3435 20.0948 51.3187C20.0383 51.2939 19.9825 51.2678 19.9274 51.2405C19.8723 51.2131 19.8179 51.1845 19.7643 51.1547C19.7107 51.1249 19.658 51.0938 19.606 51.0616C19.554 51.0294 19.503 50.996 19.4528 50.9614C19.4026 50.9268 19.3533 50.8912 19.305 50.8544C19.2567 50.8175 19.2094 50.7796 19.1631 50.7407C19.1168 50.7017 19.0716 50.6617 19.0274 50.6207C18.9832 50.5797 18.9401 50.5376 18.8982 50.4946C18.8562 50.4516 18.8154 50.4077 18.7758 50.3629C18.7361 50.318 18.6977 50.2723 18.6605 50.2257C18.6233 50.1791 18.5873 50.1317 18.5526 50.0834C18.5179 50.0352 18.4844 49.9861 18.4523 49.9364C18.4202 49.8866 18.3894 49.8362 18.3599 49.785C18.3305 49.7338 18.3024 49.682 18.2757 49.6295C18.249 49.5771 18.2236 49.5241 18.1997 49.4705C18.1758 49.4168 18.1533 49.3627 18.1323 49.3081C18.1112 49.2534 18.0916 49.1984 18.0735 49.1429C18.0554 49.0874 18.0387 49.0315 18.0235 48.9752C18.0083 48.9189 17.9946 48.8623 17.9825 48.8053C17.9703 48.7484 17.9596 48.6913 17.9504 48.6339C17.9412 48.5765 17.9336 48.5189 17.9275 48.4612C17.9213 48.4034 17.9168 48.3456 17.9137 48.2876C17.9106 48.2297 17.9091 48.1717 17.9091 48.1137Z" fill="url(#paint1_linear_10_525)"/>
</g>
<path fill-rule="evenodd" clip-rule="evenodd" d="M50.1727 30.9773C47.1854 30.9773 44.6364 33.1758 44.6364 35.9498V36C44.6364 38.774 47.0008 41.0227 49.9882 41.0227H63.0909V30.9773H50.1727ZM50.0454 37.4773C50.0975 37.4773 50.1495 37.4749 50.2014 37.4702C50.2532 37.4654 50.3047 37.4583 50.3558 37.4489C50.4069 37.4395 50.4574 37.4277 50.5073 37.4137C50.5571 37.3996 50.6061 37.3834 50.6543 37.3648C50.7024 37.3463 50.7495 37.3257 50.7954 37.3029C50.8413 37.28 50.886 37.2552 50.9293 37.2283C50.9726 37.2014 51.0144 37.1726 51.0547 37.142C51.095 37.1113 51.1335 37.0788 51.1704 37.0446C51.2072 37.0104 51.2422 36.9746 51.2752 36.9372C51.3083 36.8998 51.3393 36.861 51.3683 36.8207C51.3972 36.7805 51.4239 36.7391 51.4485 36.6964C51.4731 36.6537 51.4953 36.6101 51.5153 36.5653C51.5352 36.5206 51.5527 36.4751 51.5679 36.4288C51.583 36.3826 51.5956 36.3357 51.6058 36.2882C51.6159 36.2408 51.6236 36.193 51.6287 36.1448C51.6338 36.0967 51.6364 36.0484 51.6364 36C51.6364 35.9516 51.6338 35.9034 51.6287 35.8553C51.6236 35.8071 51.6159 35.7593 51.6058 35.7118C51.5956 35.6644 51.583 35.6175 51.5678 35.5712C51.5527 35.5249 51.5352 35.4794 51.5153 35.4347C51.4953 35.39 51.4731 35.3463 51.4485 35.3036C51.4239 35.261 51.3972 35.2195 51.3683 35.1793C51.3393 35.1391 51.3083 35.1003 51.2752 35.0628C51.2422 35.0255 51.2072 34.9896 51.1704 34.9554C51.1335 34.9212 51.095 34.8888 51.0547 34.8581C51.0144 34.8274 50.9726 34.7986 50.9293 34.7717C50.886 34.7448 50.8413 34.72 50.7954 34.6972C50.7495 34.6744 50.7024 34.6537 50.6543 34.6352C50.6061 34.6167 50.5571 34.6004 50.5073 34.5864C50.4574 34.5723 50.4069 34.5606 50.3558 34.5511C50.3047 34.5417 50.2532 34.5346 50.2014 34.5298C50.1495 34.5251 50.0975 34.5227 50.0454 34.5227C49.9933 34.5227 49.9414 34.5251 49.8895 34.5298C49.8377 34.5346 49.7862 34.5417 49.7351 34.5511C49.684 34.5606 49.6335 34.5723 49.5836 34.5863C49.5338 34.6004 49.4848 34.6167 49.4366 34.6352C49.3885 34.6537 49.3414 34.6744 49.2955 34.6972C49.2495 34.72 49.2049 34.7448 49.1616 34.7717C49.1183 34.7986 49.0765 34.8274 49.0362 34.8581C48.9959 34.8888 48.9573 34.9212 48.9205 34.9554C48.8837 34.9896 48.8487 35.0255 48.8157 35.0628C48.7826 35.1003 48.7516 35.1391 48.7226 35.1793C48.6937 35.2195 48.667 35.261 48.6424 35.3036C48.6178 35.3463 48.5956 35.39 48.5756 35.4347C48.5557 35.4794 48.5382 35.5249 48.5231 35.5712C48.5079 35.6175 48.4953 35.6644 48.4851 35.7118C48.4749 35.7593 48.4673 35.8071 48.4622 35.8553C48.4571 35.9034 48.4545 35.9516 48.4545 36C48.4545 36.0484 48.4571 36.0967 48.4622 36.1448C48.4673 36.193 48.4749 36.2408 48.4851 36.2882C48.4953 36.3357 48.5079 36.3826 48.5231 36.4288C48.5382 36.4751 48.5557 36.5206 48.5756 36.5653C48.5956 36.6101 48.6178 36.6537 48.6424 36.6964C48.667 36.7391 48.6937 36.7805 48.7226 36.8207C48.7516 36.861 48.7826 36.8998 48.8157 36.9372C48.8487 36.9746 48.8837 37.0104 48.9205 37.0446C48.9573 37.0788 48.9959 37.1113 49.0362 37.142C49.0765 37.1726 49.1183 37.2014 49.1616 37.2283C49.2049 37.2552 49.2495 37.28 49.2955 37.3029C49.3414 37.3257 49.3885 37.3463 49.4366 37.3648C49.4848 37.3834 49.5338 37.3996 49.5836 37.4137C49.6335 37.4277 49.684 37.4395 49.7351 37.4489C49.7862 37.4583 49.8377 37.4654 49.8895 37.4702C49.9414 37.4749 49.9933 37.4773 50.0454 37.4773Z" fill="white" fill-opacity="0.4"/>
<defs>
<filter id="filter0_d_10_525" x="2.08539" y="0.52417" width="75.9056" height="57.0345" filterUnits="userSpaceOnUse" color-interpolation-filters="sRGB">
<feFlood flood-opacity="0" result="BackgroundImageFix"/>
<feColorMatrix in="SourceAlpha" type="matrix" values="0 0 0 0 0 0 0 0 0 0 0 0 0 0 0 0 0 0 127 0" result="hardAlpha"/>
<feMorphology radius="1" operator="dilate" in="SourceAlpha" result="effect1_dropShadow_10_525"/>
<feOffset dy="2"/>
<feGaussianBlur stdDeviation="8"/>
<feColorMatrix type="matrix" values="0 0 0 0 1 0 0 0 0 0.8635 0 0 0 0 0.5125 0 0 0 0.5 0"/>
<feBlend mode="normal" in2="BackgroundImageFix" result="effect1_dropShadow_10_525"/>
<feBlend mode="normal" in="SourceGraphic" in2="effect1_dropShadow_10_525" result="shape"/>
</filter>
<filter id="filter1_d_10_525" x="0.909088" y="5.34094" width="79.1818" height="65.3182" filterUnits="userSpaceOnUse" color-interpolation-filters="sRGB">
<feFlood flood-opacity="0" result="BackgroundImageFix"/>
<feColorMatrix in="SourceAlpha" type="matrix" values="0 0 0 0 0 0 0 0 0 0 0 0 0 0 0 0 0 0 127 0" result="hardAlpha"/>
<feMorphology radius="1" operator="dilate" in="SourceAlpha" result="effect1_dropShadow_10_525"/>
<feOffset dy="2"/>
<feGaussianBlur stdDeviation="8"/>
<feColorMatrix type="matrix" values="0 0 0 0 0.5125 0 0 0 0 0.777446 0 0 0 0 1 0 0 0 0.5 0"/>
<feBlend mode="normal" in2="BackgroundImageFix" result="effect1_dropShadow_10_525"/>
<feBlend mode="normal" in="SourceGraphic" in2="effect1_dropShadow_10_525" result="shape"/>
</filter>
<linearGradient id="paint0_linear_10_525" x1="42.1793" y1="19.6213" x2="38.4526" y2="34.5997" gradientUnits="userSpaceOnUse">
<stop stop-color="#FFF38A"/>
<stop offset="1" stop-color="#FFCA42"/>
</linearGradient>
<linearGradient id="paint1_linear_10_525" x1="40.5" y1="20.3409" x2="40.5" y2="51.6591" gradientUnits="userSpaceOnUse">
<stop stop-color="#006688"/>
</linearGradient>
</defs>
</svg>
