<svg width="26" height="25" viewBox="0 0 26 25" fill="none" xmlns="http://www.w3.org/2000/svg">
<path d="M14.3731 2.64326L13.4144 0.30945C13.2559 -0.0957937 12.7603 -0.110441 12.5856 0.30945L11.6269 2.64326L9.50219 3.00944C9.12438 3.0778 8.96187 3.63928 9.24219 3.97617L10.7859 5.78268L10.4203 8.32643C10.3634 8.7805 10.7534 9.13204 11.1028 8.92209L13.0081 7.71124L14.9013 8.90256C15.2506 9.11251 15.6447 8.76097 15.5838 8.3069L15.2181 5.76315L16.7619 3.97617C17.0381 3.64416 16.8797 3.08268 16.5019 3.00944L14.3772 2.64326H14.3731ZM10.4 12.5009C9.68094 12.5009 9.1 13.1991 9.1 14.0633V23.4376C9.1 24.3018 9.68094 25 10.4 25H15.6C16.3191 25 16.9 24.3018 16.9 23.4376V14.0633C16.9 13.1991 16.3191 12.5009 15.6 12.5009H10.4ZM1.3 15.6257C0.580938 15.6257 0 16.3239 0 17.1881V23.4376C0 24.3018 0.580938 25 1.3 25H6.5C7.21906 25 7.8 24.3018 7.8 23.4376V17.1881C7.8 16.3239 7.21906 15.6257 6.5 15.6257H1.3ZM18.2 20.3128V23.4376C18.2 24.3018 18.7809 25 19.5 25H24.7C25.4191 25 26 24.3018 26 23.4376V20.3128C26 19.4487 25.4191 18.7505 24.7 18.7505H19.5C18.7809 18.7505 18.2 19.4487 18.2 20.3128Z" fill="#006688"/>
</svg>
