<svg width="22" height="32" viewBox="0 0 22 32" fill="none" xmlns="http://www.w3.org/2000/svg">
<path d="M0 10.9984C0.00180768 12.7291 0.412557 14.4349 1.19877 15.9768C1.98498 17.5186 3.12439 18.8528 4.52414 19.8707L4.52571 19.8723C5.4268 20.5328 6.42361 21.0516 7.48157 21.4107L7.56171 21.4406C8.15747 21.635 8.76894 21.7775 9.38929 21.8664C9.92152 21.9515 10.4594 21.9962 10.9984 22H11C11.55 22 12.0843 21.9466 12.6139 21.868L12.8999 21.824C13.4279 21.7313 13.9433 21.6056 14.4414 21.4421L14.5074 21.417C18.8571 19.9461 22 15.8369 22 10.9984C22 4.93429 17.0657 0 11 0C4.93429 0 0 4.93429 0 10.9984ZM11 3.14286C15.3309 3.14286 18.8571 6.666 18.8571 10.9984H15.7143C15.7126 9.74878 15.2154 8.55081 14.3316 7.66732C13.4478 6.78383 12.2497 6.28696 11 6.28571V3.14286ZM3.96157 23.2493V31.4286L11 29.0714L18.0384 31.4286L18.04 23.2493C15.9012 24.4891 13.4729 25.142 11.0008 25.142C8.52864 25.142 6.10035 24.4891 3.96157 23.2493Z" fill="#006688"/>
</svg>
