<svg width="26" height="26" viewBox="0 0 26 26" fill="none" xmlns="http://www.w3.org/2000/svg">
<path d="M11.6667 1H14.3333C15.0697 1 15.6667 1.59695 15.6667 2.33333V3.09172C15.6667 3.66212 16.0495 4.15766 16.5763 4.37638C17.1033 4.59518 17.7169 4.51179 18.1204 4.1083L18.6568 3.57188C19.1775 3.05118 20.0217 3.05118 20.5424 3.57188L22.428 5.4575C22.9487 5.9782 22.9487 6.82242 22.428 7.34311L21.8917 7.87946C21.4882 8.28298 21.4048 8.89663 21.6236 9.42366C21.8423 9.95049 22.3379 10.3333 22.9083 10.3333L23.6667 10.3333C24.403 10.3333 25 10.9303 25 11.6667V14.3333C25 15.0697 24.403 15.6667 23.6667 15.6667H22.9083C22.3379 15.6667 21.8423 16.0495 21.6236 16.5763C21.4048 17.1033 21.4882 17.717 21.8917 18.1205L22.4281 18.6568C22.9488 19.1775 22.9488 20.0217 22.4281 20.5424L20.5424 22.4281C20.0217 22.9488 19.1775 22.9488 18.6568 22.4281L18.1205 21.8917C17.717 21.4882 17.1033 21.4048 16.5763 21.6236C16.0495 21.8423 15.6667 22.3379 15.6667 22.9083V23.6667C15.6667 24.403 15.0697 25 14.3333 25H11.6667C10.9303 25 10.3333 24.403 10.3333 23.6667V22.9083C10.3333 22.3379 9.95049 21.8423 9.42366 21.6236C8.89662 21.4048 8.28298 21.4882 7.87946 21.8917L7.34309 22.4281C6.82239 22.9488 5.97817 22.9488 5.45747 22.4281L3.57186 20.5424C3.05116 20.0217 3.05116 19.1775 3.57186 18.6568L4.1083 18.1204C4.51179 17.7169 4.59518 17.1033 4.37638 16.5763C4.15766 16.0495 3.66212 15.6667 3.09172 15.6667H2.33333C1.59695 15.6667 1 15.0697 1 14.3333V11.6667C1 10.9303 1.59695 10.3333 2.33333 10.3333L3.09169 10.3333C3.6621 10.3333 4.15767 9.9505 4.37639 9.42369C4.5952 8.89667 4.51181 8.28305 4.10831 7.87955L3.57188 7.34312C3.05118 6.82242 3.05118 5.9782 3.57188 5.4575L5.4575 3.57188C5.9782 3.05118 6.82242 3.05118 7.34312 3.57188L7.87954 4.10831C8.28304 4.51181 8.89667 4.5952 9.42368 4.37639C9.9505 4.15767 10.3333 3.6621 10.3333 3.09169V2.33333C10.3333 1.59695 10.9303 1 11.6667 1Z" stroke="black" stroke-width="1.5"/>
<path d="M15.6667 13C15.6667 14.4728 14.4728 15.6667 13 15.6667C11.5272 15.6667 10.3333 14.4728 10.3333 13C10.3333 11.5272 11.5272 10.3333 13 10.3333C14.4728 10.3333 15.6667 11.5272 15.6667 13Z" stroke="black" stroke-width="1.5"/>
</svg>
