<svg width="64" height="64" viewBox="0 0 64 64" fill="none" xmlns="http://www.w3.org/2000/svg">
<path d="M32.5867 5.33325H31.4133C29.9989 5.33325 28.6423 5.89515 27.6421 6.89535C26.6419 7.89554 26.08 9.2521 26.08 10.6666V11.1466C26.079 12.0819 25.8322 13.0004 25.3641 13.8102C24.8961 14.6199 24.2233 15.2923 23.4133 15.7599L22.2667 16.4266C21.4559 16.8947 20.5362 17.1411 19.6 17.1411C18.6638 17.1411 17.7441 16.8947 16.9333 16.4266L16.5333 16.2133C15.3095 15.5073 13.8556 15.3158 12.4907 15.6807C11.1258 16.0457 9.96148 16.9373 9.25334 18.1599L8.66667 19.1733C7.96071 20.3971 7.76919 21.851 8.13416 23.2159C8.49913 24.5808 9.39077 25.7451 10.6133 26.4533L11.0133 26.7199C11.8194 27.1853 12.4897 27.8535 12.9575 28.6581C13.4253 29.4628 13.6744 30.3758 13.68 31.3066V32.6666C13.6837 33.6064 13.4391 34.5305 12.9708 35.3453C12.5025 36.1601 11.8272 36.8367 11.0133 37.3066L10.6133 37.5466C9.39077 38.2547 8.49913 39.419 8.13416 40.7839C7.76919 42.1488 7.96071 43.6028 8.66667 44.8266L9.25334 45.8399C9.96148 47.0625 11.1258 47.9541 12.4907 48.3191C13.8556 48.6841 15.3095 48.4925 16.5333 47.7866L16.9333 47.5732C17.7441 47.1052 18.6638 46.8587 19.6 46.8587C20.5362 46.8587 21.4559 47.1052 22.2667 47.5732L23.4133 48.2399C24.2233 48.7076 24.8961 49.38 25.3641 50.1897C25.8322 50.9994 26.079 51.918 26.08 52.8532V53.3332C26.08 54.7477 26.6419 56.1043 27.6421 57.1045C28.6423 58.1047 29.9989 58.6666 31.4133 58.6666H32.5867C34.0012 58.6666 35.3577 58.1047 36.3579 57.1045C37.3581 56.1043 37.92 54.7477 37.92 53.3332V52.8532C37.921 51.918 38.1679 50.9994 38.6359 50.1897C39.104 49.38 39.7767 48.7076 40.5867 48.2399L41.7333 47.5732C42.5441 47.1052 43.4638 46.8587 44.4 46.8587C45.3362 46.8587 46.2559 47.1052 47.0667 47.5732L47.4667 47.7866C48.6905 48.4925 50.1444 48.6841 51.5093 48.3191C52.8742 47.9541 54.0385 47.0625 54.7467 45.8399L55.3333 44.7999C56.0393 43.5761 56.2308 42.1221 55.8659 40.7573C55.5009 39.3924 54.6092 38.2281 53.3867 37.5199L52.9867 37.3066C52.1728 36.8367 51.4975 36.1601 51.0292 35.3453C50.5609 34.5305 50.3163 33.6064 50.32 32.6666V31.3333C50.3163 30.3935 50.5609 29.4694 51.0292 28.6546C51.4975 27.8397 52.1728 27.1631 52.9867 26.6933L53.3867 26.4533C54.6092 25.7451 55.5009 24.5808 55.8659 23.2159C56.2308 21.851 56.0393 20.3971 55.3333 19.1733L54.7467 18.1599C54.0385 16.9373 52.8742 16.0457 51.5093 15.6807C50.1444 15.3158 48.6905 15.5073 47.4667 16.2133L47.0667 16.4266C46.2559 16.8947 45.3362 17.1411 44.4 17.1411C43.4638 17.1411 42.5441 16.8947 41.7333 16.4266L40.5867 15.7599C39.7767 15.2923 39.104 14.6199 38.6359 13.8102C38.1679 13.0004 37.921 12.0819 37.92 11.1466V10.6666C37.92 9.2521 37.3581 7.89554 36.3579 6.89535C35.3577 5.89515 34.0012 5.33325 32.5867 5.33325V5.33325Z" stroke="black" stroke-opacity="0.6" stroke-width="4" stroke-linecap="round" stroke-linejoin="round"/>
<path d="M32 40C36.4183 40 40 36.4183 40 32C40 27.5817 36.4183 24 32 24C27.5817 24 24 27.5817 24 32C24 36.4183 27.5817 40 32 40Z" stroke="black" stroke-opacity="0.6" stroke-width="4" stroke-linecap="round" stroke-linejoin="round"/>
</svg>
