<svg width="26" height="24" viewBox="0 0 26 24" fill="none" xmlns="http://www.w3.org/2000/svg">
<path d="M23.2285 18L14.9474 3.99998C14.7668 3.69218 14.5049 3.43617 14.1885 3.25805C13.8721 3.07993 13.5124 2.98608 13.1462 2.98608C12.78 2.98608 12.4203 3.07993 12.1039 3.25805C11.7875 3.43617 11.5256 3.69218 11.3451 3.99998L3.06391 18C2.8814 18.3053 2.7857 18.6519 2.7865 19.0045C2.78731 19.3571 2.8846 19.7032 3.06852 20.0078C3.25243 20.3124 3.51642 20.5646 3.83374 20.7388C4.15107 20.9131 4.51043 21.0032 4.87542 21H21.4377C21.8009 20.9996 22.1577 20.9069 22.4721 20.7313C22.7865 20.5556 23.0476 20.3031 23.229 19.9991C23.4105 19.6951 23.506 19.3504 23.5059 18.9995C23.5058 18.6486 23.4101 18.3039 23.2285 18Z" stroke="#D91E18" stroke-width="2" stroke-linecap="round" stroke-linejoin="round"/>
<path d="M13.1566 9V13" stroke="#D91E18" stroke-width="2" stroke-linecap="round" stroke-linejoin="round"/>
<path d="M13.1566 17H13.1666" stroke="#D91E18" stroke-width="2" stroke-linecap="round" stroke-linejoin="round"/>
</svg>
