<svg width="24" height="18" viewBox="0 0 24 18" fill="none" xmlns="http://www.w3.org/2000/svg">
<path d="M15.2636 0C16.9915 0 18.6806 0.512381 20.1173 1.47235C21.554 2.43231 22.6737 3.79675 23.335 5.39312C23.9962 6.98949 24.1692 8.74608 23.8321 10.4408C23.495 12.1355 22.663 13.6921 21.4412 14.914C20.2194 16.1358 18.6627 16.9678 16.968 17.3049C15.2733 17.642 13.5167 17.469 11.9203 16.8078C10.324 16.1465 8.95953 15.0268 7.99956 13.5901C7.03959 12.1534 6.52721 10.4643 6.52721 8.73639C6.52721 6.41936 7.44765 4.19722 9.08604 2.55883C10.7244 0.920439 12.9466 0 15.2636 0ZM2.15902 8.73639C2.16056 10.0901 2.58135 11.4101 3.36354 12.5149C4.14573 13.6198 5.25093 14.4552 6.52721 14.9065V17.1889C4.65763 16.7002 3.00281 15.6055 1.82174 14.0761C0.640669 12.5466 0 10.6688 0 8.73639C0 6.80401 0.640669 4.92615 1.82174 3.39672C3.00281 1.86728 4.65763 0.772577 6.52721 0.283933V2.56631C5.25093 3.01755 4.14573 3.85301 3.36354 4.95785C2.58135 6.0627 2.16056 7.38269 2.15902 8.73639Z" fill="#006688"/>
</svg>
