<svg width="20" height="15" viewBox="0 0 20 15" fill="none" xmlns="http://www.w3.org/2000/svg">
<path fill-rule="evenodd" clip-rule="evenodd" d="M16.3333 4.50887C16.3333 4.1884 16.5001 3.88106 16.7971 3.65445C17.094 3.42784 17.4967 3.30054 17.9166 3.30054C18.3366 3.30054 18.7393 3.42784 19.0362 3.65445C19.3332 3.88106 19.5 4.1884 19.5 4.50887V12.6865L17.9166 14.499L16.3333 12.6865V4.50887ZM17.9166 4.10609C17.7767 4.10609 17.6424 4.14853 17.5435 4.22406C17.4445 4.2996 17.3889 4.40205 17.3889 4.50887V12.4424L17.9166 13.0466L18.4444 12.4424V4.50887C18.4444 4.40205 18.3888 4.2996 18.2898 4.22406C18.1909 4.14853 18.0566 4.10609 17.9166 4.10609Z" fill="#00210F"/>
<path fill-rule="evenodd" clip-rule="evenodd" d="M18.9722 6.12009H16.8611V5.31453H18.9722V6.12009ZM2.61111 1.28676C2.33116 1.28676 2.06268 1.37163 1.86472 1.5227C1.66677 1.67377 1.55556 1.87867 1.55556 2.09231V13.3701C1.55556 13.5837 1.66677 13.7886 1.86472 13.9397C2.06268 14.0908 2.33116 14.1756 2.61111 14.1756H13.1667C13.4466 14.1756 13.7151 14.0908 13.9131 13.9397C14.111 13.7886 14.2222 13.5837 14.2222 13.3701V2.09231C14.2222 1.87867 14.111 1.67377 13.9131 1.5227C13.7151 1.37163 13.4466 1.28676 13.1667 1.28676H2.61111ZM0.5 2.09231C0.5 1.66502 0.72242 1.25523 1.11833 0.953085C1.51424 0.650943 2.05121 0.481201 2.61111 0.481201H13.1667C13.7266 0.481201 14.2635 0.650943 14.6594 0.953085C15.0554 1.25523 15.2778 1.66502 15.2778 2.09231V13.3701C15.2778 13.7974 15.0554 14.2072 14.6594 14.5093C14.2635 14.8115 13.7266 14.9812 13.1667 14.9812H2.61111C2.05121 14.9812 1.51424 14.8115 1.11833 14.5093C0.72242 14.2072 0.5 13.7974 0.5 13.3701V2.09231Z" fill="#00210F"/>
<path fill-rule="evenodd" clip-rule="evenodd" d="M7.88888 4.10615C7.88888 3.99932 7.94448 3.89688 8.04346 3.82134C8.14244 3.7458 8.27668 3.70337 8.41666 3.70337H12.6389C12.7789 3.70337 12.9131 3.7458 13.0121 3.82134C13.1111 3.89688 13.1667 3.99932 13.1667 4.10615C13.1667 4.21297 13.1111 4.31542 13.0121 4.39095C12.9131 4.46649 12.7789 4.50892 12.6389 4.50892H8.41666C8.27668 4.50892 8.14244 4.46649 8.04346 4.39095C7.94448 4.31542 7.88888 4.21297 7.88888 4.10615ZM7.88888 5.71726C7.88888 5.61043 7.94448 5.50799 8.04346 5.43245C8.14244 5.35692 8.27668 5.31448 8.41666 5.31448H12.6389C12.7789 5.31448 12.9131 5.35692 13.0121 5.43245C13.1111 5.50799 13.1667 5.61043 13.1667 5.71726C13.1667 5.82408 13.1111 5.92653 13.0121 6.00207C12.9131 6.0776 12.7789 6.12004 12.6389 6.12004H8.41666C8.27668 6.12004 8.14244 6.0776 8.04346 6.00207C7.94448 5.92653 7.88888 5.82408 7.88888 5.71726ZM7.88888 9.34226C7.88888 9.23543 7.94448 9.13299 8.04346 9.05745C8.14244 8.98192 8.27668 8.93948 8.41666 8.93948H12.6389C12.7789 8.93948 12.9131 8.98192 13.0121 9.05745C13.1111 9.13299 13.1667 9.23543 13.1667 9.34226C13.1667 9.44908 13.1111 9.55153 13.0121 9.62706C12.9131 9.7026 12.7789 9.74504 12.6389 9.74504H8.41666C8.27668 9.74504 8.14244 9.7026 8.04346 9.62706C7.94448 9.55153 7.88888 9.44908 7.88888 9.34226ZM7.88888 10.9534C7.88888 10.8465 7.94448 10.7441 8.04346 10.6686C8.14244 10.593 8.27668 10.5506 8.41666 10.5506H12.6389C12.7789 10.5506 12.9131 10.593 13.0121 10.6686C13.1111 10.7441 13.1667 10.8465 13.1667 10.9534C13.1667 11.0602 13.1111 11.1626 13.0121 11.2382C12.9131 11.3137 12.7789 11.3561 12.6389 11.3561H8.41666C8.27668 11.3561 8.14244 11.3137 8.04346 11.2382C7.94448 11.1626 7.88888 11.0602 7.88888 10.9534ZM3.66666 9.34226V10.5506H5.24999V9.34226H3.66666ZM3.13888 8.5367H5.77777C5.91774 8.5367 6.05198 8.57914 6.15096 8.65467C6.24994 8.73021 6.30554 8.83266 6.30554 8.93948V10.9534C6.30554 11.0602 6.24994 11.1626 6.15096 11.2382C6.05198 11.3137 5.91774 11.3561 5.77777 11.3561H3.13888C2.9989 11.3561 2.86466 11.3137 2.76568 11.2382C2.66671 11.1626 2.6111 11.0602 2.6111 10.9534V8.93948C2.6111 8.83266 2.66671 8.73021 2.76568 8.65467C2.86466 8.57914 2.9989 8.5367 3.13888 8.5367V8.5367ZM6.67868 3.82138C6.77763 3.89692 6.83321 3.99934 6.83321 4.10615C6.83321 4.21295 6.77763 4.31538 6.67868 4.39091L4.19443 6.28679L2.76574 5.19647C2.71533 5.15931 2.67512 5.11487 2.64746 5.06573C2.6198 5.01659 2.60524 4.96373 2.60463 4.91025C2.60403 4.85677 2.61738 4.80374 2.64392 4.75424C2.67045 4.70474 2.70964 4.65976 2.7592 4.62195C2.80875 4.58413 2.86768 4.55422 2.93254 4.53397C2.9974 4.51372 3.0669 4.50353 3.13698 4.50399C3.20706 4.50446 3.27631 4.51557 3.3407 4.53668C3.40509 4.55778 3.46333 4.58847 3.51202 4.62694L4.19443 5.14773L5.93241 3.82138C6.03138 3.74587 6.1656 3.70346 6.30554 3.70346C6.44549 3.70346 6.57971 3.74587 6.67868 3.82138V3.82138Z" fill="#00210F"/>
</svg>
