<svg width="51" height="40" viewBox="0 0 51 40" fill="none" xmlns="http://www.w3.org/2000/svg">
<path d="M30.5 6.40005V32.8H6.5V6.40005H30.5ZM34.5 3.20005H2.5V36.8H34.5V3.20005ZM9.5 9.60005H27.5V12.8H9.5V9.60005ZM9.5 15.2H27.5V18.4H9.5V15.2ZM9.5 20.8H27.5V24H9.5V20.8ZM9.5 26.4H27.5V29.6H9.5V26.4ZM40.5 9.60005H48.5V32H40.5V9.60005ZM44.506 0.800049C42.312 0.800049 40.5 2.21205 40.5 3.94965V7.20005H48.5V3.94965C48.5 2.21205 46.691 0.800049 44.506 0.800049ZM40.438 34.4L44.479 39.5097L48.5 34.4H40.438Z" fill="#006688"/>
</svg>
