<svg width="43" height="40" viewBox="0 0 43 40" fill="none" xmlns="http://www.w3.org/2000/svg">
<path fill-rule="evenodd" clip-rule="evenodd" d="M22.4115 20.887C25.7548 20.887 28.4651 16.7896 28.4651 11.7352C28.4651 6.6808 25.7548 2.58337 22.4115 2.58337C19.0682 2.58337 16.3578 6.6808 16.3578 11.7352C16.3578 16.7896 19.0682 20.887 22.4115 20.887Z" fill="#006688"/>
<path fill-rule="evenodd" clip-rule="evenodd" d="M27.665 19.8626C26.3039 21.8245 24.4511 23.0316 22.4098 23.0316C20.3686 23.0316 18.5158 21.8245 17.1547 19.8626C16.9203 19.7747 16.6859 19.6879 16.4583 19.644C16.2307 19.6001 16.0105 19.6001 15.8051 19.6481C15.6005 19.6951 15.4113 19.7911 15.1905 19.9106C14.9696 20.029 14.7176 20.172 14.4022 20.458C14.0874 20.7439 13.7085 21.1729 13.3464 21.8888C12.9837 22.6027 12.6372 23.6046 12.3217 24.7964C12.0063 25.9873 11.7226 27.3701 11.5652 28.7049C11.4078 30.0387 11.3761 31.3266 11.3606 32.3029C11.3443 33.2803 11.3443 33.9482 11.4078 34.5917C11.4707 35.2351 11.5963 35.854 11.8807 36.4739C12.1644 37.0938 12.6054 37.7137 13.1256 38.1897C13.6457 38.6666 14.2448 39.0006 15.0648 39.167C15.8842 39.3335 16.9244 39.3335 18.1855 39.3335H21.8424H22.4098H22.9772H26.6342C27.8953 39.3335 28.9355 39.3335 29.7549 39.167C30.5749 39.0006 31.174 38.6666 31.6941 38.1897C32.2142 37.7137 32.6553 37.0938 32.939 36.4739C33.2234 35.854 33.349 35.2351 33.4118 34.5917C33.4753 33.9482 33.4753 33.2803 33.4591 32.3029C33.4436 31.3266 33.4118 30.0387 33.2545 28.7049C33.0971 27.3701 32.8134 25.9873 32.4979 24.7964C32.1825 23.6046 31.836 22.6027 31.4732 21.8888C31.1112 21.1729 30.7323 20.7439 30.4175 20.458C30.1021 20.172 29.8501 20.029 29.6292 19.9106C29.4083 19.7911 29.2192 19.6951 29.0146 19.6481C28.8092 19.6001 28.589 19.6001 28.3614 19.644C28.1337 19.6879 27.8994 19.7747 27.665 19.8626Z" fill="#006688"/>
<path fill-rule="evenodd" clip-rule="evenodd" d="M28.8606 16.2451C29.9365 17.7301 31.369 18.637 32.9406 18.637C36.2831 18.637 38.9927 14.5396 38.9927 9.48518C38.9927 4.4308 36.2831 0.333374 32.9406 0.333374C30.7942 0.333374 28.9079 2.02361 27.834 4.57174C29.0457 6.24462 29.8062 8.65487 29.8062 11.3317C29.8062 13.1394 29.459 14.8265 28.8606 16.2451Z" fill="#006688"/>
<path fill-rule="evenodd" clip-rule="evenodd" d="M15.4727 16.2451C14.3968 17.7301 12.9643 18.637 11.3927 18.637C8.05026 18.637 5.34062 14.5396 5.34062 9.48518C5.34062 4.4308 8.05026 0.333374 11.3927 0.333374C13.5391 0.333374 15.4254 2.02361 16.4993 4.57174C15.2877 6.24462 14.5272 8.65487 14.5272 11.3317C14.5272 13.1394 14.8743 14.8265 15.4727 16.2451Z" fill="#006688"/>
<path fill-rule="evenodd" clip-rule="evenodd" d="M37.8613 17.9507C36.5403 19.8534 34.7571 21.0473 32.7873 21.1167L33.0049 21.5109C33.3678 22.2248 33.7144 23.2267 34.03 24.4186C34.3455 25.6094 34.6294 26.9922 34.7868 28.327C34.9442 29.6608 34.976 30.9487 34.9915 31.9251C35.0078 32.9024 35.0078 33.5704 34.9442 34.2138C34.8814 34.8572 34.7557 35.4761 34.4712 36.096C34.2597 36.5576 33.9611 37.0203 33.6077 37.4216H36.8302C38.0918 37.4216 39.1324 37.4216 39.952 37.2552C40.7724 37.0887 41.3717 36.7547 41.892 36.2778C42.4124 35.8019 42.8536 35.182 43.1374 34.562C43.4219 33.9421 43.5476 33.3232 43.6104 32.6798C43.6739 32.0364 43.6739 31.3684 43.6577 30.3911C43.6422 29.4147 43.6104 28.1269 43.453 26.7931C43.2955 25.4582 43.0117 24.0754 42.6962 22.8846C42.3806 21.6927 42.0339 20.6908 41.6711 19.977C41.3089 19.261 40.9298 18.8321 40.6149 18.5461C40.2994 18.2602 40.0473 18.1172 39.8264 17.9987C39.6054 17.8792 39.4162 17.7832 39.2114 17.7362C39.006 17.6882 38.7857 17.6882 38.558 17.7322C38.3303 17.7761 38.0958 17.8629 37.8613 17.9507Z" fill="#006688"/>
<path fill-rule="evenodd" clip-rule="evenodd" d="M6.472 17.9507C7.79304 19.8534 9.57628 21.0473 11.546 21.1167L11.3284 21.5109C10.9656 22.2248 10.6189 23.2267 10.3034 24.4186C9.9878 25.6094 9.70399 26.9922 9.54655 28.327C9.38911 29.6608 9.35735 30.9487 9.3418 31.9251C9.32559 32.9024 9.32559 33.5704 9.38911 34.2138C9.45195 34.8572 9.57763 35.4761 9.86211 36.096C10.0736 36.5576 10.3723 37.0203 10.7257 37.4216H7.50316C6.24158 37.4216 5.20096 37.4216 4.3813 37.2552C3.56097 37.0887 2.96161 36.7547 2.4413 36.2778C1.92099 35.8019 1.47974 35.182 1.19593 34.562C0.911454 33.9421 0.785769 33.3232 0.722927 32.6798C0.659409 32.0364 0.659409 31.3684 0.675626 30.3911C0.691168 29.4147 0.722927 28.1269 0.880371 26.7931C1.03781 25.4582 1.32162 24.0754 1.63718 22.8846C1.95275 21.6927 2.29939 20.6908 2.66226 19.977C3.02445 19.261 3.40353 18.8321 3.71842 18.5461C4.03398 18.2602 4.28603 18.1172 4.50699 17.9987C4.72795 17.8792 4.91715 17.7832 5.1219 17.7362C5.32732 17.6882 5.54761 17.6882 5.77533 17.7322C6.00305 17.7761 6.23752 17.8629 6.472 17.9507Z" fill="#006688"/>
</svg>
