<svg width="43" height="40" viewBox="0 0 43 40" fill="none" xmlns="http://www.w3.org/2000/svg">
<path d="M21.5 7C23.4007 7 25.2236 7.68482 26.5676 8.90381C27.9116 10.1228 28.6667 11.7761 28.6667 13.5C28.6667 15.2239 27.9116 16.8772 26.5676 18.0962C25.2236 19.3152 23.4007 20 21.5 20C19.5993 20 17.7764 19.3152 16.4324 18.0962C15.0884 16.8772 14.3333 15.2239 14.3333 13.5C14.3333 11.7761 15.0884 10.1228 16.4324 8.90381C17.7764 7.68482 19.5993 7 21.5 7M21.5 23.25C29.4192 23.25 35.8333 26.1587 35.8333 29.75V33H7.16666V29.75C7.16666 26.1587 13.5808 23.25 21.5 23.25Z" fill="#006688"/>
</svg>
