<svg width="85" height="84" viewBox="0 0 85 84" fill="none" xmlns="http://www.w3.org/2000/svg">
<g filter="url(#filter0_d_10_479)">
<rect x="20.5" y="12" width="44" height="44" rx="22" fill="#006688"/>
</g>
<path fill-rule="evenodd" clip-rule="evenodd" d="M42.6291 34.5C44.3914 34.5 45.8201 33.0713 45.8201 31.309C45.8201 29.5466 44.3914 28.1179 42.6291 28.1179C40.8667 28.1179 39.438 29.5466 39.438 31.309C39.438 33.0713 40.8667 34.5 42.6291 34.5Z" fill="#E6E6E6"/>
<path fill-rule="evenodd" clip-rule="evenodd" d="M45.3984 34.1428C44.6809 34.8269 43.7042 35.2478 42.6282 35.2478C41.5522 35.2478 40.5755 34.8269 39.8581 34.1428C39.7345 34.1122 39.611 34.0819 39.491 34.0666C39.371 34.0513 39.2549 34.0513 39.1467 34.068C39.0388 34.0844 38.9391 34.1179 38.8226 34.1596C38.7062 34.2009 38.5734 34.2507 38.4071 34.3504C38.2412 34.4501 38.0414 34.5997 37.8506 34.8493C37.6594 35.0982 37.4767 35.4476 37.3105 35.8632C37.1442 36.2784 36.9946 36.7605 36.9117 37.226C36.8287 37.691 36.812 38.1401 36.8038 38.4805C36.7952 38.8213 36.7952 39.0542 36.8287 39.2786C36.8618 39.5029 36.9281 39.7187 37.078 39.9349C37.2275 40.151 37.46 40.3672 37.7342 40.5331C38.0083 40.6994 38.3242 40.8159 38.7564 40.8739C39.1883 40.932 39.7367 40.932 40.4014 40.932H42.3291H42.6282H42.9273H44.855C45.5198 40.932 46.0681 40.932 46.5 40.8739C46.9323 40.8159 47.2481 40.6994 47.5223 40.5331C47.7964 40.3672 48.0289 40.151 48.1785 39.9349C48.3284 39.7187 48.3946 39.5029 48.4277 39.2786C48.4612 39.0542 48.4612 38.8213 48.4526 38.4805C48.4444 38.1401 48.4277 37.691 48.3448 37.226C48.2618 36.7605 48.1122 36.2784 47.946 35.8632C47.7797 35.4476 47.597 35.0982 47.4058 34.8493C47.215 34.5997 47.0152 34.4501 46.8493 34.3504C46.683 34.2507 46.5502 34.2009 46.4338 34.1596C46.3173 34.1179 46.2177 34.0844 46.1098 34.068C46.0015 34.0513 45.8854 34.0513 45.7655 34.0666C45.6455 34.0819 45.5219 34.1122 45.3984 34.1428Z" fill="#E6E6E6"/>
<path fill-rule="evenodd" clip-rule="evenodd" d="M46.0286 32.8815C46.5958 33.3993 47.3509 33.7155 48.1793 33.7155C49.9412 33.7155 51.3696 32.2868 51.3696 30.5244C51.3696 28.7621 49.9412 27.3334 48.1793 27.3334C47.0479 27.3334 46.0536 27.9227 45.4875 28.8112C46.1262 29.3945 46.5271 30.2349 46.5271 31.1683C46.5271 31.7986 46.3441 32.3869 46.0286 32.8815Z" fill="#E6E6E6"/>
<path fill-rule="evenodd" clip-rule="evenodd" d="M38.9714 32.8815C38.4043 33.3993 37.6492 33.7155 36.8207 33.7155C35.0588 33.7155 33.6305 32.2868 33.6305 30.5244C33.6305 28.7621 35.0588 27.3334 36.8207 27.3334C37.9522 27.3334 38.9465 27.9227 39.5126 28.8112C38.8739 29.3945 38.473 30.2349 38.473 31.1683C38.473 31.7986 38.656 32.3869 38.9714 32.8815Z" fill="#E6E6E6"/>
<path fill-rule="evenodd" clip-rule="evenodd" d="M50.7732 33.4762C50.0768 34.1396 49.1368 34.5559 48.0985 34.5801L48.2132 34.7176C48.4045 34.9665 48.5872 35.3158 48.7536 35.7314C48.9199 36.1466 49.0695 36.6288 49.1525 37.0942C49.2355 37.5593 49.2522 38.0083 49.2604 38.3488C49.269 38.6896 49.269 38.9225 49.2355 39.1468C49.2024 39.3712 49.1361 39.5869 48.9862 39.8031C48.8747 39.9641 48.7172 40.1254 48.5309 40.2653H50.2296C50.8947 40.2653 51.4432 40.2653 51.8753 40.2073C52.3077 40.1492 52.6236 40.0328 52.8979 39.8665C53.1722 39.7005 53.4048 39.4844 53.5544 39.2682C53.7043 39.0521 53.7706 38.8363 53.8037 38.6119C53.8372 38.3876 53.8372 38.1547 53.8286 37.8139C53.8204 37.4735 53.8037 37.0244 53.7207 36.5593C53.6377 36.0939 53.4881 35.6118 53.3218 35.1965C53.1554 34.781 52.9727 34.4316 52.7814 34.1827C52.5905 33.9331 52.3907 33.7835 52.2247 33.6838C52.0583 33.5841 51.9255 33.5342 51.809 33.4929C51.6925 33.4513 51.5928 33.4178 51.4849 33.4014C51.3766 33.3847 51.2605 33.3847 51.1404 33.4C51.0204 33.4153 50.8968 33.4456 50.7732 33.4762Z" fill="#E6E6E6"/>
<path fill-rule="evenodd" clip-rule="evenodd" d="M34.2269 33.4762C34.9232 34.1396 35.8632 34.5559 36.9016 34.5801L36.7869 34.7176C36.5956 34.9665 36.4128 35.3158 36.2465 35.7314C36.0802 36.1466 35.9306 36.6288 35.8476 37.0942C35.7646 37.5593 35.7478 38.0083 35.7396 38.3488C35.7311 38.6896 35.7311 38.9225 35.7646 39.1468C35.7977 39.3712 35.864 39.5869 36.0139 39.8031C36.1254 39.9641 36.2828 40.1254 36.4691 40.2653H34.7704C34.1054 40.2653 33.5569 40.2653 33.1248 40.2073C32.6924 40.1492 32.3764 40.0328 32.1022 39.8665C31.8279 39.7005 31.5953 39.4844 31.4457 39.2682C31.2957 39.0521 31.2295 38.8363 31.1964 38.6119C31.1629 38.3876 31.1629 38.1547 31.1714 37.8139C31.1796 37.4735 31.1964 37.0244 31.2793 36.5593C31.3623 36.0939 31.5119 35.6118 31.6783 35.1965C31.8446 34.781 32.0274 34.4316 32.2186 34.1827C32.4096 33.9331 32.6094 33.7835 32.7754 33.6838C32.9417 33.5841 33.0746 33.5342 33.1911 33.4929C33.3075 33.4513 33.4073 33.4178 33.5152 33.4014C33.6235 33.3847 33.7396 33.3847 33.8596 33.4C33.9797 33.4153 34.1033 33.4456 34.2269 33.4762Z" fill="#E6E6E6"/>
<defs>
<filter id="filter0_d_10_479" x="0.5" y="0" width="84" height="84" filterUnits="userSpaceOnUse" color-interpolation-filters="sRGB">
<feFlood flood-opacity="0" result="BackgroundImageFix"/>
<feColorMatrix in="SourceAlpha" type="matrix" values="0 0 0 0 0 0 0 0 0 0 0 0 0 0 0 0 0 0 127 0" result="hardAlpha"/>
<feMorphology radius="2" operator="erode" in="SourceAlpha" result="effect1_dropShadow_10_479"/>
<feOffset dy="8"/>
<feGaussianBlur stdDeviation="11"/>
<feColorMatrix type="matrix" values="0 0 0 0 0.971137 0 0 0 0 0.341921 0 0 0 0 0.36709 0 0 0 0.3 0"/>
<feBlend mode="normal" in2="BackgroundImageFix" result="effect1_dropShadow_10_479"/>
<feBlend mode="normal" in="SourceGraphic" in2="effect1_dropShadow_10_479" result="shape"/>
</filter>
</defs>
</svg>
