<svg width="43" height="40" viewBox="0 0 43 40" fill="none" xmlns="http://www.w3.org/2000/svg">
<path d="M25.969 30.536C34.5961 27.3171 40.9904 23.3862 40.2511 21.7563C39.5117 20.1263 31.9188 21.4144 23.2917 24.6334C14.6646 27.8524 8.27031 31.7833 9.00964 33.4132C9.74897 35.0432 17.342 33.755 25.969 30.536Z" fill="#006688"/>
<path d="M24.9262 28.2095C29.1447 26.6363 32.1338 24.411 31.6025 23.2391C31.0712 22.0672 27.2208 22.3925 23.0023 23.9656C18.7838 25.5388 15.7948 27.7641 16.326 28.936C16.8573 30.1079 20.7078 29.7826 24.9262 28.2095Z" fill="#01475F"/>
<path d="M19.9406 29.7987L19.3366 26.1242C19.2297 25.4758 18.3032 25.0608 17.2625 25.2022C16.2218 25.3436 15.4672 25.9834 15.5741 26.6336L16.1794 30.3082C14.1954 31.0668 12.9309 32.5056 13.1714 33.9589C13.4798 35.8346 16.1512 37.0241 19.1431 36.6176C22.1289 36.213 24.3017 34.3678 23.9953 32.4928C23.7548 31.0382 22.0818 29.9992 19.9372 29.7987" fill="#007EA8"/>
<path d="M15.304 33.6683C15.0648 32.2137 16.3319 30.775 18.3113 30.0175L17.7059 26.343C17.6408 25.9408 17.9088 25.5416 18.3623 25.2638C18.0055 25.1685 17.6297 25.1469 17.2625 25.2004C16.2218 25.3418 15.4672 25.9816 15.5741 26.6318L16.1794 30.3063C14.1954 31.065 12.9309 32.5038 13.1714 33.9571C13.4798 35.8328 16.1512 37.0223 19.1431 36.6158C19.4998 36.5666 19.8527 36.4962 20.1993 36.405C17.6683 36.4306 15.5761 35.313 15.304 33.6683Z" fill="#00688B"/>
<path d="M23.2737 32.6342C23.3477 33.0888 23.2778 33.5269 23.1004 33.8999C23.0554 33.9913 23.0043 34.0809 22.9459 34.1631C22.7336 34.4453 22.1557 34.9358 22.0603 34.5354C22.0209 34.3629 21.9695 34.1927 21.9065 34.026C21.8745 33.9444 21.8402 33.8635 21.8037 33.7835C21.3925 32.65 20.4915 32.8146 19.7605 32.3776C19.3984 32.1796 19.655 31.7323 19.8492 31.5196C19.9137 31.4386 19.9816 31.3661 20.0508 31.2997C20.3309 31.0328 20.6474 30.8682 21.0015 30.8402C21.1058 30.8267 21.2112 30.8212 21.3166 30.8237C22.2626 30.8591 23.1044 31.6117 23.2737 32.6342" fill="#0097C9"/>
<path d="M18.1359 4.64927C18.6217 5.71933 17.6293 7.10505 15.9214 7.74063C14.2095 8.38047 12.4324 8.02825 11.9466 6.95758C11.4608 5.88752 12.4519 4.5018 14.1645 3.86439C15.8704 3.22759 17.6502 3.57859 18.1359 4.64927Z" fill="#007095"/>
<path d="M17.1671 4.4494C17.2584 4.64989 17.239 4.87475 17.1321 5.09047C17.1041 5.14517 17.072 5.19811 17.0361 5.2489C16.8956 5.42867 16.4939 5.78759 16.3911 5.61757C16.3262 5.50389 16.2411 5.40073 16.1391 5.31228C15.7407 4.86134 15.0675 5.13251 14.4823 5.08132C14.192 5.06609 14.3526 4.79675 14.4836 4.65354C14.5273 4.60114 14.5723 4.55239 14.6234 4.50547C14.811 4.31663 15.0458 4.17122 15.308 4.08134C15.387 4.05318 15.4672 4.02797 15.5485 4.00578C16.2674 3.81992 16.9628 3.99786 17.1671 4.4494Z" fill="#0097C9"/>
<path d="M14.3512 5.53532C14.0953 4.97226 14.196 4.33242 14.5662 3.73462C14.4302 3.773 14.296 3.8163 14.1638 3.86442C12.4519 4.50304 11.4629 5.88754 11.9459 6.9576C12.4317 8.02767 14.2088 8.37988 15.9207 7.74065C16.5489 7.50726 17.0811 7.17088 17.4782 6.78698C16.0363 6.92713 14.7705 6.46462 14.3512 5.53532" fill="#006485"/>
<path fill-rule="evenodd" clip-rule="evenodd" d="M33.7214 18.8117C31.0662 17.6471 29.2145 15.8538 27.784 13.6935C26.4336 11.6478 25.3451 9.487 24.297 7.31641C23.6621 6.00625 22.6005 5.52363 20.947 5.63027C19.8117 5.7062 18.6871 5.8815 17.589 6.15372C16.9581 6.3603 16.3313 6.5748 15.697 6.79357C15.0184 7.06413 14.3533 7.33408 13.6895 7.615C13.3502 7.75943 13.0109 7.90507 12.6743 8.05193C11.8165 8.51258 11.0036 9.03854 10.2441 9.62411C8.98633 10.6022 8.60538 11.6223 9.17109 12.9598C10.1097 15.17 11.0127 17.3985 11.6389 19.7178C12.2993 22.1675 12.3726 24.6233 11.3896 27.1449C10.8844 28.441 10.2743 29.7055 9.67769 30.9748C9.29472 31.7871 8.92855 32.6018 8.99775 33.4726C9.12541 33.539 9.21611 33.5049 9.28061 33.3867C10.107 31.8876 11.6248 30.9096 13.1298 29.9474C15.7219 28.2899 18.5451 26.9681 21.4288 25.7439C22.0906 25.4618 22.7604 25.1949 23.4363 24.9243C24.1264 24.6836 24.811 24.4478 25.5003 24.226C28.5023 23.2534 31.5311 22.3917 34.6593 21.917C36.4741 21.6398 38.3123 21.368 40.0612 21.9042C40.2003 21.9481 40.2897 21.9152 40.3273 21.7872C39.7031 21.1248 38.8075 20.7787 37.9079 20.4454C36.4983 19.9232 35.0846 19.4125 33.7207 18.8147" fill="#0180AA"/>
<path fill-rule="evenodd" clip-rule="evenodd" d="M37.9005 20.4326C36.4909 19.9116 35.0773 19.3997 33.7134 18.8032C31.0581 17.6387 29.2064 15.8447 27.7746 13.6838C26.4242 11.6381 25.3357 9.47729 24.2883 7.30792C23.6534 5.99654 22.5918 5.51514 20.9376 5.62239C19.8027 5.69731 18.6785 5.87222 17.581 6.14462C16.9507 6.35181 16.3239 6.56631 15.689 6.78568C15.3107 6.9362 14.9358 7.09342 14.5595 7.24637C14.8001 7.16472 15.0426 7.08062 15.2865 7.00018C16.3891 6.73084 17.5037 6.55168 18.6445 6.47673C20.2974 6.3707 21.3589 6.85333 21.9938 8.16531C23.0433 10.3353 24.1304 12.4955 25.4802 14.54C26.912 16.7033 28.7636 18.4948 31.4189 19.6593C32.7828 20.2571 34.1971 20.7678 35.606 21.2888C35.9171 21.4034 36.2242 21.5265 36.5225 21.6569C37.7144 21.5399 38.9036 21.5411 40.0538 21.8933C40.1916 21.9347 40.2816 21.9025 40.3199 21.7757C39.6957 21.1103 38.8001 20.7647 37.9005 20.4326Z" fill="#007AA3"/>
<path fill-rule="evenodd" clip-rule="evenodd" d="M14.4117 28.4965C15.009 27.226 15.6184 25.9609 16.1237 24.666C17.1066 22.1444 17.0334 19.688 16.3716 17.2389C15.7467 14.9227 14.8424 12.6954 13.9051 10.4809C13.3394 9.14397 13.721 8.12327 14.9795 7.144C15.0567 7.08246 15.1387 7.02517 15.2186 6.96667C14.7033 7.1763 14.188 7.37922 13.6814 7.59616C13.3408 7.74058 13.0015 7.88622 12.6648 8.03247C11.8075 8.4926 10.995 9.01816 10.236 9.60344C8.97692 10.5815 8.59597 11.6034 9.16303 12.9392C10.101 15.1512 11.0046 17.3809 11.6302 19.6971C12.292 22.1468 12.3652 24.6026 11.3809 27.123C10.8756 28.4197 10.2669 29.6836 9.6703 30.9553C9.28733 31.7664 8.92116 32.5811 8.99036 33.4507C9.11802 33.5184 9.20671 33.483 9.27188 33.3654C10.0996 31.867 11.616 30.8895 13.121 29.9261C13.4234 29.7348 13.7304 29.5452 14.0388 29.36C14.1497 29.0699 14.2767 28.7811 14.4117 28.4947" fill="#006688"/>
<path d="M41.7705 17.2901C41.5367 16.9824 41.3049 16.6747 41.0737 16.373C41.0381 16.3243 41.0247 16.2828 40.9992 16.239C40.9682 16.1914 40.934 16.1433 40.9118 16.0897C40.8755 16.0093 40.8527 15.9245 40.844 15.838C40.8426 15.8215 40.8325 15.8063 40.8298 15.7868C40.5705 12.6912 38.698 9.59495 35.6678 7.41887C34.0399 6.24948 33.6898 6.65045 32.4858 5.06425C31.9947 4.41587 32.3071 3.865 32.8997 4.07097C38.3345 5.95028 42.9415 12.0172 42.9382 17.2914C42.9389 17.8672 42.2596 17.9361 41.7705 17.2901" fill="#27AAE1"/>
<path d="M38.438 17.8337L37.8662 17.0817C37.8366 17.0409 37.8252 17.0117 37.8024 16.9721C37.7789 16.9324 37.7493 16.8916 37.7298 16.8483C37.702 16.7824 37.6839 16.7133 37.6761 16.643C37.6747 16.629 37.6673 16.615 37.6646 16.6009C37.4537 14.0531 35.9104 11.5047 33.4157 9.71257C32.078 8.75341 31.7904 9.07943 30.8008 7.77658C30.395 7.24155 30.6509 6.78818 31.1401 6.95697C35.6134 8.506 39.4021 13.495 39.4008 17.838C39.4014 18.3127 38.8431 18.3663 38.438 17.8337M5.36694 29.5617L5.12305 28.471C5.11029 28.4137 5.08677 28.3753 5.0693 28.3284C5.05385 28.276 5.0384 28.2199 5.01152 28.1675C4.97221 28.0885 4.92062 28.015 4.85833 27.9493C4.84691 27.9365 4.84019 27.9195 4.82877 27.9048C2.55246 25.5856 1.39616 22.2139 1.77376 18.7277C1.97666 16.8532 2.53835 16.9026 2.11574 15.0153C1.94105 14.2439 1.28933 14.0653 1.04007 14.5955C-1.24363 19.4479 0.368194 26.666 4.55733 30.3277C5.01488 30.7287 5.53827 30.3326 5.36694 29.5636" fill="#27AAE1"/>
<path d="M8.10953 27.7665C8.04167 27.4704 7.97449 27.1663 7.90931 26.8726C7.89655 26.8238 7.88109 26.7958 7.8643 26.7549C7.85019 26.7117 7.83877 26.6635 7.81794 26.6209C7.78513 26.5567 7.74261 26.4971 7.69163 26.4436C7.68155 26.4314 7.67617 26.418 7.66744 26.4052C5.79223 24.499 4.84288 21.7209 5.15261 18.8507C5.32125 17.3109 5.77947 17.3492 5.43278 15.7978C5.29102 15.1622 4.75284 15.0135 4.54725 15.4504C2.66869 19.4449 3.99497 25.3832 7.44169 28.3978C7.81995 28.7269 8.25063 28.3997 8.10953 27.7653" fill="#27AAE1"/>
</svg>
