<svg width="49" height="50" viewBox="0 0 49 50" fill="none" xmlns="http://www.w3.org/2000/svg">
<path d="M29.4887 38.2375C39.1189 34.1932 46.2567 29.2544 45.4314 27.2065C44.6061 25.1586 36.1303 26.7771 26.5 30.8214C16.8698 34.8658 9.73198 39.8046 10.5573 41.8525C11.3826 43.9004 19.8585 42.2819 29.4887 38.2375Z" fill="#006688"/>
<path d="M28.3247 35.3145C33.0337 33.3379 36.3703 30.542 35.7772 29.0696C35.1842 27.5972 30.886 28.0059 26.177 29.9824C21.468 31.959 18.1314 34.7549 18.7244 36.2273C19.3175 37.6997 23.6157 37.291 28.3247 35.3145Z" fill="#01475F"/>
<path d="M22.7592 37.3113L22.085 32.6946C21.9657 31.88 20.9315 31.3586 19.7697 31.5362C18.608 31.7138 17.7657 32.5177 17.885 33.3347L18.5607 37.9514C16.346 38.9046 14.9345 40.7122 15.203 42.5382C15.5472 44.8948 18.5292 46.3893 21.869 45.8787C25.202 45.3703 27.6275 43.052 27.2855 40.6961C27.017 38.8686 25.1495 37.5632 22.7555 37.3113" fill="#007EA8"/>
<path d="M17.5835 42.1729C17.3165 40.3454 18.731 38.5377 20.9405 37.5861L20.2647 32.9693C20.192 32.464 20.4912 31.9625 20.9975 31.6134C20.5992 31.4938 20.1797 31.4666 19.7697 31.5338C18.608 31.7114 17.7657 32.5153 17.885 33.3322L18.5607 37.949C16.346 38.9022 14.9345 40.7098 15.203 42.5358C15.5472 44.8924 18.5292 46.3869 21.869 45.8762C22.2673 45.8144 22.6611 45.7259 23.048 45.6113C20.2227 45.6435 17.8872 44.2393 17.5835 42.1729Z" fill="#00688B"/>
<path d="M26.48 40.8737C26.5625 41.4449 26.4845 41.9954 26.2865 42.4639C26.2363 42.5788 26.1793 42.6913 26.114 42.7947C25.877 43.1492 25.232 43.7655 25.1255 43.2625C25.0814 43.0457 25.0241 42.8319 24.9538 42.6224C24.9181 42.5198 24.8798 42.4182 24.839 42.3177C24.38 40.8936 23.3743 41.1003 22.5583 40.5514C22.154 40.3026 22.4405 39.7406 22.6573 39.4734C22.7293 39.3716 22.805 39.2805 22.8823 39.197C23.195 38.8617 23.5483 38.6549 23.9435 38.6197C24.06 38.6027 24.1776 38.5958 24.2953 38.599C25.3513 38.6435 26.291 39.589 26.48 40.8737Z" fill="#0097C9"/>
<path d="M20.7448 5.71318C21.287 7.05762 20.1793 8.79865 18.2728 9.5972C16.3618 10.4011 14.378 9.95857 13.8358 8.61337C13.2935 7.26893 14.3998 5.5279 16.3115 4.72706C18.2158 3.92698 20.2025 4.36798 20.7448 5.71318Z" fill="#007095"/>
<path d="M19.6633 5.46207C19.7653 5.71396 19.7435 5.99647 19.6243 6.2675C19.5929 6.33624 19.5571 6.40275 19.517 6.46657C19.3603 6.69243 18.9118 7.14338 18.797 6.92977C18.7246 6.78694 18.6296 6.65732 18.5158 6.54619C18.071 5.97963 17.3195 6.32033 16.6663 6.25602C16.3423 6.23688 16.5215 5.89847 16.6678 5.71855C16.7165 5.65271 16.7668 5.59146 16.8238 5.5325C17.0333 5.29525 17.2953 5.11255 17.588 4.99963C17.6762 4.96425 17.7658 4.93258 17.8565 4.90469C18.659 4.67118 19.4353 4.89474 19.6633 5.46207Z" fill="#0097C9"/>
<path d="M16.52 6.82639C16.2343 6.11895 16.3468 5.31504 16.76 4.56396C16.6082 4.61219 16.4583 4.66659 16.3108 4.72704C14.3997 5.52942 13.2958 7.26892 13.835 8.61336C14.3773 9.95779 16.361 10.4003 18.272 9.59718C18.9732 9.30395 19.5673 8.88132 20.0105 8.39898C18.401 8.57507 16.988 7.99396 16.52 6.82639Z" fill="#006485"/>
<path fill-rule="evenodd" clip-rule="evenodd" d="M38.1425 23.5069C35.1785 22.0438 33.1115 19.7906 31.5147 17.0765C30.0072 14.5063 28.7922 11.7913 27.6222 9.06419C26.9135 7.41809 25.7285 6.81172 23.8827 6.9457C22.6154 7.0411 21.3601 7.26135 20.1342 7.60338C19.43 7.86292 18.7302 8.13242 18.0222 8.40728C17.2647 8.74722 16.5222 9.08639 15.7812 9.43934C15.4025 9.6208 15.0237 9.80378 14.648 9.9883C13.6905 10.5671 12.783 11.2279 11.9352 11.9636C10.5312 13.1924 10.106 14.4741 10.7375 16.1546C11.7852 18.9316 12.7932 21.7315 13.4922 24.6454C14.2295 27.7232 14.3112 30.8087 13.214 33.9769C12.65 35.6053 11.969 37.194 11.303 38.7888C10.8755 39.8094 10.4667 40.833 10.544 41.9271C10.6865 42.0106 10.7877 41.9677 10.8597 41.8192C11.7822 39.9357 13.4765 38.7069 15.1565 37.498C18.05 35.4155 21.2015 33.7548 24.4205 32.2167C25.1592 31.8622 25.907 31.5269 26.6615 31.1869C27.4317 30.8845 28.196 30.5882 28.9655 30.3095C32.3165 29.0876 35.6975 28.005 39.1895 27.4086C41.2152 27.0602 43.2672 26.7187 45.2195 27.3925C45.3747 27.4476 45.4745 27.4063 45.5165 27.2455C44.8197 26.4132 43.82 25.9784 42.8157 25.5596C41.2422 24.9034 39.6642 24.2618 38.1417 23.5108" fill="#0180AA"/>
<path fill-rule="evenodd" clip-rule="evenodd" d="M42.8075 25.5435C41.234 24.8889 39.656 24.2458 38.1335 23.4963C35.1695 22.0332 33.1025 19.7792 31.5043 17.0642C29.9968 14.494 28.7818 11.7791 27.6125 9.05351C26.9038 7.40589 25.7188 6.80104 23.8723 6.93579C22.6054 7.02993 21.3504 7.24968 20.1253 7.59193C19.4218 7.85225 18.722 8.12175 18.0133 8.39737C17.591 8.58648 17.1725 8.78401 16.7525 8.97618C17.021 8.87359 17.2918 8.76793 17.564 8.66687C18.7948 8.32846 20.039 8.10337 21.3125 8.0092C23.1575 7.87598 24.3425 8.48236 25.0513 10.1307C26.2228 12.8571 27.4363 15.5713 28.943 18.1399C30.5413 20.8579 32.6083 23.1089 35.5723 24.572C37.0948 25.323 38.6735 25.9646 40.2463 26.6192C40.5935 26.7632 40.9363 26.9178 41.2693 27.0817C42.5998 26.9347 43.9273 26.9362 45.2113 27.3787C45.365 27.4308 45.4655 27.3902 45.5083 27.231C44.8115 26.3949 43.8118 25.9608 42.8075 25.5435Z" fill="#007AA3"/>
<path fill-rule="evenodd" clip-rule="evenodd" d="M16.5875 35.6751C17.2542 34.0787 17.9345 32.4893 18.4985 30.8623C19.5957 27.6942 19.514 24.6079 18.7752 21.5309C18.0777 18.6208 17.0682 15.8224 16.022 13.0401C15.3905 11.3603 15.8165 10.0779 17.2212 8.84755C17.3075 8.77022 17.399 8.69826 17.4882 8.62476C16.913 8.88813 16.3377 9.14308 15.7722 9.41565C15.392 9.5971 15.0132 9.78008 14.6375 9.96383C13.6805 10.5419 12.7734 11.2023 11.9262 11.9376C10.5207 13.1664 10.0955 14.4504 10.7285 16.1286C11.7755 18.9079 12.7842 21.7093 13.4825 24.6194C14.2212 27.6972 14.303 30.7827 13.2042 33.9493C12.6402 35.5786 11.9607 37.1665 11.2947 38.7644C10.8672 39.7834 10.4585 40.807 10.5357 41.8996C10.6782 41.9846 10.7772 41.9402 10.85 41.7924C11.774 39.9097 13.4667 38.6817 15.1467 37.4712C15.4842 37.2308 15.827 36.9927 16.1712 36.7599C16.295 36.3955 16.4367 36.0326 16.5875 35.6728" fill="#006688"/>
<path d="M47.1275 21.5952C46.8665 21.2086 46.6078 20.8219 46.3498 20.443C46.31 20.3817 46.295 20.3296 46.2665 20.2745C46.232 20.2148 46.1938 20.1543 46.169 20.0869C46.1285 19.986 46.103 19.8794 46.0933 19.7707C46.0918 19.7501 46.0805 19.7309 46.0775 19.7064C45.788 15.817 43.6978 11.9269 40.3153 9.19286C38.498 7.72362 38.1073 8.2274 36.7633 6.23448C36.215 5.41986 36.5638 4.72773 37.2253 4.98651C43.292 7.3477 48.4348 14.9703 48.431 21.5967C48.4318 22.3203 47.6735 22.4068 47.1275 21.5952Z" fill="#27AAE1"/>
<path d="M43.4075 22.2782L42.7693 21.3334C42.7363 21.2821 42.7235 21.2453 42.698 21.1956C42.6718 21.1458 42.6388 21.0945 42.617 21.0401C42.5859 20.9572 42.5657 20.8705 42.557 20.7821C42.5555 20.7645 42.5472 20.7469 42.5443 20.7293C42.3088 17.5282 40.586 14.3264 37.8013 12.0747C36.308 10.8696 35.987 11.2792 34.8823 9.64229C34.4293 8.97007 34.715 8.40045 35.261 8.61252C40.2545 10.5587 44.4838 16.8269 44.4823 22.2835C44.483 22.8799 43.8597 22.9473 43.4075 22.2782ZM6.491 37.0134L6.21875 35.6429C6.2045 35.5709 6.17825 35.5227 6.15875 35.4638C6.1415 35.3979 6.12425 35.3275 6.09425 35.2616C6.05037 35.1624 5.99278 35.0701 5.92325 34.9875C5.9105 34.9715 5.903 34.95 5.89025 34.9316C3.34925 32.0177 2.0585 27.7815 2.48 23.4013C2.7065 21.0463 3.3335 21.1083 2.86175 18.7371C2.66675 17.7679 1.93925 17.5435 1.661 18.2096C-0.888246 24.3063 0.911004 33.3751 5.58725 37.9758C6.098 38.4796 6.68225 37.9819 6.491 37.0157" fill="#27AAE1"/>
<path d="M9.55251 34.7578C9.47676 34.3857 9.40176 34.0037 9.32901 33.6347C9.31476 33.5734 9.29751 33.5382 9.27876 33.4869C9.26301 33.4325 9.25026 33.3721 9.22701 33.3185C9.19038 33.2379 9.14293 33.1629 9.08601 33.0957C9.07476 33.0804 9.06876 33.0635 9.05901 33.0474C6.96576 30.6526 5.90601 27.1621 6.25176 23.556C6.44001 21.6212 6.95151 21.6695 6.56451 19.7202C6.40626 18.9217 5.80551 18.7348 5.57601 19.2838C3.47901 24.3025 4.95951 31.7635 8.80701 35.551C9.22926 35.9645 9.71001 35.5533 9.55251 34.7563" fill="#27AAE1"/>
</svg>
