<svg width="43" height="40" viewBox="0 0 49 48" fill="none" xmlns="http://www.w3.org/2000/svg">
<path d="M40.1 27.2C40.2 26.5 40.3 25.8 40.3 25C40.3 24.2 40.2 23.5 40.1 22.8L44.6 19.6C45 19.3 45.2 18.7 44.9 18.2L40.5 10.8C40.2 10.3 39.7 10.1 39.2 10.4L34.2 12.7C33 11.8 31.8 11.1 30.4 10.5L29.9 4.99998C29.8 4.49998 29.4 4.09998 28.9 4.09998H20.3C19.8 4.09998 19.3 4.49998 19.3 4.99998L18.8 10.5C17.4 11.1 16.1 11.8 15 12.7L10 10.4C9.5 10.2 8.9 10.4 8.7 10.8L4.4 18.2C4.1 18.7 4.3 19.3 4.7 19.6L9.2 22.8C9.1 23.5 9 24.2 9 25C9 25.8 9.1 26.5 9.2 27.2L4.5 30.4C4.1 30.7 3.9 31.3 4.2 31.8L8.5 39.2C8.8 39.7 9.3 39.9 9.8 39.6L14.8 37.3C16 38.2 17.2 38.9 18.6 39.5L19.1 45C19.2 45.5 19.6 45.9 20.1 45.9H28.7C29.2 45.9 29.7 45.5 29.7 45L30.2 39.5C31.6 38.9 32.9 38.2 34 37.3L39 39.6C39.5 39.8 40.1 39.6 40.3 39.2L44.6 31.8C44.9 31.3 44.7 30.7 44.3 30.4L40.1 27.2ZM24.5 35C19 35 14.5 30.5 14.5 25C14.5 19.5 19 15 24.5 15C30 15 34.5 19.5 34.5 25C34.5 30.5 30 35 24.5 35Z" fill="#006688"/>
<path d="M24.5 13C17.9 13 12.5 18.4 12.5 25C12.5 31.6 17.9 37 24.5 37C31.1 37 36.5 31.6 36.5 25C36.5 18.4 31.1 13 24.5 13ZM24.5 30C21.7 30 19.5 27.8 19.5 25C19.5 22.2 21.7 20 24.5 20C27.3 20 29.5 22.2 29.5 25C29.5 27.8 27.3 30 24.5 30Z" fill="#024D66"/>
</svg>
