<svg width="70" height="40" viewBox="0 0 60 40" fill="none" xmlns="http://www.w3.org/2000/svg">
<path fill-rule="evenodd" clip-rule="evenodd" d="M30.5 11.1364C36.0454 13.1676 41.5909 15.1989 47.1364 17.2301C47.1364 20.7239 47.1364 24.2176 47.1364 27.7114C47.1364 28.8234 46.1501 29.7789 44.6409 30.3317C41.3885 31.523 38.1361 32.7143 34.8837 33.9057C32.1088 34.9221 28.783 34.8824 26.0082 33.866C22.7291 32.665 19.4501 31.4639 16.1711 30.2628C14.6619 29.71 13.8636 28.7015 13.8636 27.5895C13.8636 24.1364 13.8636 20.6832 13.8636 17.2301C19.4091 15.1989 24.9545 13.1676 30.5 11.1364Z" fill="url(#paint0_linear_155_1827)"/>
<path d="M7.75513 12.2379L26.9039 5.12394C26.9628 5.10207 27.0231 5.08076 27.0847 5.05999C27.1464 5.03923 27.2094 5.01904 27.2737 4.99942C27.3381 4.97981 27.4037 4.96079 27.4705 4.94237C27.5374 4.92395 27.6054 4.90615 27.6746 4.88897C27.7438 4.87179 27.8141 4.85526 27.8855 4.83936C27.9569 4.82346 28.0293 4.80823 28.1027 4.79365C28.1761 4.77907 28.2504 4.76518 28.3256 4.75196C28.4009 4.73874 28.4769 4.72621 28.5538 4.71438C28.6307 4.70254 28.7084 4.69142 28.7867 4.681C28.8651 4.67059 28.9441 4.66089 29.0237 4.65191C29.1034 4.64294 29.1836 4.63469 29.2643 4.62718C29.345 4.61967 29.4262 4.6129 29.5078 4.60686C29.5895 4.60083 29.6715 4.59554 29.7538 4.59101C29.8361 4.58647 29.9187 4.58269 30.0015 4.57966C30.0844 4.57663 30.1673 4.57435 30.2505 4.57283C30.3336 4.57132 30.4168 4.57056 30.5 4.57056C30.5832 4.57056 30.6664 4.57132 30.7495 4.57283C30.8327 4.57435 30.9156 4.57663 30.9985 4.57966C31.0813 4.58269 31.1639 4.58647 31.2462 4.59101C31.3285 4.59554 31.4105 4.60083 31.4922 4.60686C31.5738 4.6129 31.655 4.61967 31.7357 4.62718C31.8164 4.63469 31.8966 4.64294 31.9763 4.65191C32.0559 4.66089 32.1349 4.67059 32.2133 4.681C32.2916 4.69142 32.3693 4.70254 32.4462 4.71438C32.5231 4.72621 32.5991 4.73874 32.6744 4.75196C32.7496 4.76518 32.8239 4.77907 32.8973 4.79365C32.9707 4.80823 33.0431 4.82346 33.1145 4.83936C33.1859 4.85526 33.2562 4.87179 33.3254 4.88897C33.3946 4.90615 33.4626 4.92395 33.5295 4.94237C33.5963 4.96079 33.6619 4.97981 33.7263 4.99942C33.7906 5.01904 33.8536 5.03923 33.9153 5.05999C33.9769 5.08076 34.0372 5.10207 34.0961 5.12394L53.2449 12.2379C53.3037 12.2598 53.3611 12.2822 53.417 12.3051C53.4729 12.328 53.5272 12.3514 53.58 12.3753C53.6328 12.3992 53.684 12.4236 53.7336 12.4484C53.7832 12.4733 53.8311 12.4985 53.8773 12.5242C53.9236 12.5499 53.9681 12.5761 54.0109 12.6026C54.0536 12.6291 54.0946 12.656 54.1339 12.6833C54.1731 12.7105 54.2105 12.7381 54.2461 12.7661C54.2817 12.794 54.3154 12.8223 54.3473 12.8509C54.3791 12.8794 54.4091 12.9083 54.4371 12.9374C54.4652 12.9665 54.4913 12.9959 54.5154 13.0255C54.5396 13.055 54.5618 13.0848 54.582 13.1148C54.6022 13.1448 54.6204 13.175 54.6367 13.2053C54.6529 13.2356 54.6672 13.2661 54.6794 13.2967C54.6916 13.3273 54.7017 13.3579 54.7099 13.3887C54.7181 13.4195 54.7242 13.4503 54.7282 13.4812C54.7324 13.5121 54.7344 13.543 54.7344 13.5739C54.7344 13.6048 54.7324 13.6357 54.7283 13.6666C54.7242 13.6975 54.718 13.7283 54.7099 13.7591C54.7017 13.7899 54.6916 13.8205 54.6793 13.8511C54.6671 13.8817 54.6529 13.9122 54.6367 13.9425C54.6204 13.9728 54.6022 14.003 54.582 14.033C54.5618 14.063 54.5396 14.0928 54.5154 14.1223C54.4912 14.1519 54.4651 14.1813 54.4371 14.2104C54.4091 14.2395 54.3791 14.2684 54.3473 14.2969C54.3154 14.3255 54.2817 14.3537 54.2461 14.3817C54.2105 14.4097 54.1731 14.4373 54.1339 14.4645C54.0947 14.4918 54.0537 14.5187 54.0109 14.5452C53.9681 14.5717 53.9235 14.5978 53.8773 14.6236C53.8311 14.6493 53.7831 14.6745 53.7336 14.6994C53.684 14.7242 53.6328 14.7486 53.58 14.7725C53.5272 14.7964 53.4728 14.8198 53.4169 14.8427C53.3611 14.8656 53.3037 14.888 53.2449 14.9099L34.0961 22.0239C34.0372 22.0457 33.9769 22.067 33.9152 22.0878C33.8536 22.1086 33.7906 22.1288 33.7263 22.1484C33.6619 22.168 33.5963 22.187 33.5294 22.2054C33.4626 22.2238 33.3946 22.2416 33.3254 22.2588C33.2562 22.276 33.1859 22.2925 33.1145 22.3085C33.0432 22.3243 32.9708 22.3396 32.8973 22.3541C32.824 22.3687 32.7496 22.3826 32.6744 22.3958C32.5991 22.4091 32.5231 22.4216 32.4462 22.4334C32.3693 22.4453 32.2916 22.4564 32.2133 22.4668C32.1349 22.4772 32.0559 22.4869 31.9762 22.4959C31.8966 22.5049 31.8164 22.5131 31.7357 22.5206C31.655 22.5281 31.5738 22.5349 31.4922 22.5409C31.4105 22.547 31.3285 22.5523 31.2462 22.5568C31.1639 22.5613 31.0813 22.5651 30.9985 22.5681C30.9156 22.5712 30.8327 22.5734 30.7496 22.575C30.6664 22.5765 30.5832 22.5772 30.5 22.5772C30.4168 22.5772 30.3336 22.5765 30.2504 22.575C30.1673 22.5734 30.0844 22.5712 30.0015 22.5681C29.9187 22.5651 29.8361 22.5613 29.7538 22.5568C29.6715 22.5523 29.5895 22.547 29.5078 22.5409C29.4262 22.5349 29.345 22.5281 29.2643 22.5206C29.1836 22.5131 29.1034 22.5049 29.0238 22.4959C28.9441 22.4869 28.8651 22.4772 28.7867 22.4668C28.7084 22.4564 28.6307 22.4453 28.5538 22.4334C28.4769 22.4216 28.4009 22.4091 28.3256 22.3958C28.2504 22.3826 28.176 22.3687 28.1027 22.3541C28.0292 22.3396 27.9568 22.3243 27.8855 22.3085C27.8141 22.2925 27.7438 22.276 27.6746 22.2588C27.6054 22.2416 27.5374 22.2238 27.4706 22.2054C27.4037 22.187 27.3381 22.168 27.2737 22.1484C27.2094 22.1288 27.1464 22.1086 27.0848 22.0878C27.0231 22.067 26.9628 22.0457 26.9039 22.0239L7.75513 14.9099C7.69628 14.888 7.63892 14.8656 7.58305 14.8427C7.52715 14.8198 7.4728 14.7964 7.41998 14.7725C7.3672 14.7486 7.31602 14.7242 7.26644 14.6994C7.21686 14.6745 7.16894 14.6493 7.12268 14.6236C7.07647 14.5978 7.03195 14.5717 6.98912 14.5452C6.94634 14.5187 6.90534 14.4918 6.86612 14.4645C6.82687 14.4373 6.78946 14.4097 6.75391 14.3817C6.71832 14.3537 6.68458 14.3255 6.6527 14.2969C6.62087 14.2684 6.59093 14.2395 6.5629 14.2104C6.53487 14.1813 6.50877 14.1519 6.4846 14.1223C6.46043 14.0928 6.43822 14.063 6.41799 14.033C6.3978 14.003 6.37958 13.9728 6.36333 13.9425C6.34708 13.9122 6.33286 13.8817 6.32067 13.8511C6.30844 13.8205 6.29826 13.7899 6.29013 13.7591C6.28195 13.7283 6.27582 13.6975 6.27173 13.6666C6.26764 13.6357 6.26561 13.6048 6.26563 13.5739C6.26561 13.543 6.26765 13.5121 6.27176 13.4812C6.27583 13.4503 6.28195 13.4195 6.29012 13.3887C6.29826 13.3579 6.30843 13.3273 6.32064 13.2967C6.33285 13.2661 6.34708 13.2356 6.36333 13.2053C6.37958 13.175 6.39781 13.1448 6.41802 13.1148C6.43822 13.0848 6.46041 13.055 6.48457 13.0255C6.50873 12.9959 6.53484 12.9665 6.5629 12.9374C6.59092 12.9083 6.62086 12.8794 6.65272 12.8509C6.68458 12.8223 6.7183 12.794 6.75389 12.7661C6.78949 12.7381 6.82689 12.7105 6.86611 12.6833C6.90536 12.656 6.94636 12.6291 6.98912 12.6026C7.03192 12.5761 7.07644 12.5499 7.1227 12.5242C7.16892 12.4985 7.21681 12.4733 7.26639 12.4484C7.31597 12.4236 7.36717 12.3992 7.41998 12.3753C7.47278 12.3514 7.52713 12.328 7.58302 12.3051C7.63891 12.2822 7.69628 12.2598 7.75513 12.2379Z" fill="url(#paint1_linear_155_1827)"/>
<g filter="url(#filter0_d_155_1827)">
<path d="M51.2955 16.4546C51.3409 16.4546 51.3862 16.456 51.4313 16.4589C51.4765 16.4617 51.5214 16.466 51.5659 16.4716C51.6105 16.4773 51.6544 16.4843 51.6979 16.4928C51.7413 16.5012 51.784 16.511 51.826 16.5221C51.8679 16.5332 51.9089 16.5456 51.949 16.5593C51.989 16.5729 52.0279 16.5878 52.0657 16.604C52.1034 16.6201 52.1399 16.6374 52.175 16.6558C52.2101 16.6742 52.2437 16.6937 52.2758 16.7142C52.3079 16.7347 52.3383 16.7562 52.3671 16.7787C52.3959 16.8011 52.4229 16.8244 52.4482 16.8485C52.4734 16.8727 52.4967 16.8975 52.5181 16.9231C52.5395 16.9487 52.5589 16.9749 52.5763 17.0018C52.5937 17.0286 52.6089 17.0559 52.6221 17.0837C52.6353 17.1114 52.6463 17.1396 52.6552 17.168C52.664 17.1965 52.6707 17.2252 52.6751 17.2541C52.6796 17.283 52.6818 17.3119 52.6818 17.341V29.3069C52.6818 29.3359 52.6796 29.3649 52.6751 29.3937C52.6707 29.4226 52.664 29.4513 52.6552 29.4798C52.6463 29.5082 52.6353 29.5364 52.6221 29.5642C52.6089 29.5919 52.5937 29.6192 52.5763 29.6461C52.5589 29.6729 52.5395 29.6991 52.5181 29.7247C52.4967 29.7503 52.4734 29.7751 52.4482 29.7993C52.4229 29.8234 52.3959 29.8467 52.3671 29.8692C52.3383 29.8916 52.3079 29.9131 52.2758 29.9336C52.2437 29.9541 52.2101 29.9736 52.175 29.992C52.1399 30.0105 52.1034 30.0277 52.0657 30.0438C52.0279 30.06 51.989 30.0749 51.949 30.0885C51.9089 30.1023 51.8679 30.1147 51.826 30.1258C51.784 30.1369 51.7413 30.1466 51.6979 30.1551C51.6544 30.1635 51.6105 30.1705 51.5659 30.1762C51.5214 30.1819 51.4765 30.1861 51.4313 30.189C51.3862 30.1918 51.3409 30.1932 51.2955 30.1932C51.25 30.1932 51.2048 30.1918 51.1596 30.189C51.1144 30.1861 51.0695 30.1819 51.025 30.1762C50.9805 30.1705 50.9365 30.1635 50.893 30.1551C50.8496 30.1466 50.8069 30.1369 50.7649 30.1258C50.723 30.1147 50.682 30.1023 50.6419 30.0885C50.6019 30.0749 50.563 30.06 50.5252 30.0438C50.4875 30.0277 50.451 30.0105 50.4159 29.992C50.3809 29.9736 50.3473 29.9541 50.3151 29.9336C50.283 29.9131 50.2526 29.8916 50.2238 29.8692C50.195 29.8467 50.168 29.8234 50.1427 29.7993C50.1175 29.7751 50.0942 29.7503 50.0728 29.7247C50.0514 29.6991 50.032 29.6729 50.0146 29.6461C49.9972 29.6192 49.982 29.5919 49.9688 29.5642C49.9556 29.5364 49.9446 29.5082 49.9357 29.4798C49.9269 29.4513 49.9202 29.4226 49.9158 29.3937C49.9113 29.3649 49.9091 29.3359 49.9091 29.3069V17.341C49.9091 17.3119 49.9113 17.283 49.9158 17.2541C49.9202 17.2252 49.9269 17.1965 49.9357 17.168C49.9446 17.1396 49.9556 17.1114 49.9688 17.0837C49.982 17.0559 49.9972 17.0286 50.0146 17.0018C50.032 16.9749 50.0514 16.9487 50.0728 16.9231C50.0942 16.8975 50.1175 16.8727 50.1427 16.8485C50.168 16.8244 50.195 16.8011 50.2238 16.7787C50.2526 16.7562 50.283 16.7347 50.3151 16.7142C50.3473 16.6937 50.3809 16.6742 50.4159 16.6558C50.451 16.6374 50.4875 16.6201 50.5252 16.604C50.563 16.5878 50.6019 16.5729 50.6419 16.5593C50.682 16.5456 50.723 16.5332 50.7649 16.5221C50.8069 16.511 50.8496 16.5012 50.893 16.4928C50.9365 16.4843 50.9805 16.4773 51.025 16.4716C51.0695 16.466 51.1144 16.4617 51.1596 16.4589C51.2048 16.456 51.25 16.4546 51.2955 16.4546Z" fill="url(#paint2_linear_155_1827)"/>
</g>
<defs>
<filter id="filter0_d_155_1827" x="32.9091" y="1.45459" width="36.7727" height="47.7386" filterUnits="userSpaceOnUse" color-interpolation-filters="sRGB">
<feFlood flood-opacity="0" result="BackgroundImageFix"/>
<feColorMatrix in="SourceAlpha" type="matrix" values="0 0 0 0 0 0 0 0 0 0 0 0 0 0 0 0 0 0 127 0" result="hardAlpha"/>
<feMorphology radius="1" operator="dilate" in="SourceAlpha" result="effect1_dropShadow_155_1827"/>
<feOffset dy="2"/>
<feGaussianBlur stdDeviation="8"/>
<feColorMatrix type="matrix" values="0 0 0 0 1 0 0 0 0 0.8635 0 0 0 0 0.5125 0 0 0 0.5 0"/>
<feBlend mode="normal" in2="BackgroundImageFix" result="effect1_dropShadow_155_1827"/>
<feBlend mode="normal" in="SourceGraphic" in2="effect1_dropShadow_155_1827" result="shape"/>
</filter>
<linearGradient id="paint0_linear_155_1827" x1="30.5" y1="11.1364" x2="30.5" y2="34.6484" gradientUnits="userSpaceOnUse">
<stop offset="0.734375" stop-color="#006688" stop-opacity="0.9"/>
</linearGradient>
<linearGradient id="paint1_linear_155_1827" x1="30.5" y1="3.60231" x2="30.5" y2="23.5455" gradientUnits="userSpaceOnUse">
<stop offset="1" stop-color="#006688"/>
</linearGradient>
<linearGradient id="paint2_linear_155_1827" x1="51.2955" y1="16.4546" x2="51.2955" y2="30.1932" gradientUnits="userSpaceOnUse">
<stop stop-color="#FFF38A"/>
<stop offset="1" stop-color="#FFCA42"/>
</linearGradient>
</defs>
</svg>
