<svg width="70" height="55" viewBox="0 0 70 55" fill="none" xmlns="http://www.w3.org/2000/svg">
<path fill-rule="evenodd" clip-rule="evenodd" d="M30.5 12.5454C36.0454 14.9412 41.5909 17.3371 47.1364 19.7329C47.1364 23.8537 47.1364 27.9746 47.1364 32.0954C47.1364 33.407 46.1501 34.534 44.6409 35.186C41.3885 36.5912 38.1361 37.9964 34.8837 39.4015C32.1088 40.6003 28.783 40.5536 26.0082 39.3548C22.7291 37.9381 19.4501 36.5215 16.1711 35.1048C14.6619 34.4528 13.8636 33.2633 13.8636 31.9517C13.8636 27.8787 13.8636 23.8058 13.8636 19.7329C19.4091 17.3371 24.9545 14.9412 30.5 12.5454Z" fill="url(#paint0_linear_155_1827)"/>
<path d="M7.75513 13.8447L26.9039 5.45382C26.9628 5.42803 27.0231 5.40289 27.0847 5.37839C27.1464 5.3539 27.2094 5.33009 27.2737 5.30695C27.3381 5.28381 27.4037 5.26138 27.4705 5.23966C27.5374 5.21793 27.6054 5.19694 27.6746 5.17668C27.7438 5.15642 27.8141 5.13691 27.8855 5.11816C27.9569 5.09941 28.0293 5.08144 28.1027 5.06425C28.1761 5.04705 28.2504 5.03066 28.3256 5.01507C28.4009 4.99948 28.4769 4.9847 28.5538 4.97074C28.6307 4.95679 28.7084 4.94367 28.7867 4.93138C28.8651 4.91909 28.9441 4.90766 29.0237 4.89707C29.1034 4.88648 29.1836 4.87676 29.2643 4.8679C29.345 4.85904 29.4262 4.85105 29.5078 4.84393C29.5895 4.83682 29.6715 4.83058 29.7538 4.82523C29.8361 4.81988 29.9187 4.81542 30.0015 4.81184C30.0844 4.80827 30.1673 4.80559 30.2505 4.8038C30.3336 4.80201 30.4168 4.80111 30.5 4.80111C30.5832 4.80111 30.6664 4.80201 30.7495 4.8038C30.8327 4.80559 30.9156 4.80827 30.9985 4.81184C31.0813 4.81542 31.1639 4.81988 31.2462 4.82523C31.3285 4.83058 31.4105 4.83682 31.4922 4.84393C31.5738 4.85105 31.655 4.85904 31.7357 4.8679C31.8164 4.87676 31.8966 4.88648 31.9763 4.89707C32.0559 4.90766 32.1349 4.91909 32.2133 4.93138C32.2916 4.94367 32.3693 4.95679 32.4462 4.97074C32.5231 4.9847 32.5991 4.99948 32.6744 5.01507C32.7496 5.03066 32.8239 5.04705 32.8973 5.06425C32.9707 5.08144 33.0431 5.09941 33.1145 5.11816C33.1859 5.13691 33.2562 5.15642 33.3254 5.17668C33.3946 5.19694 33.4626 5.21793 33.5295 5.23966C33.5963 5.26138 33.6619 5.28382 33.7263 5.30695C33.7906 5.33009 33.8536 5.3539 33.9153 5.37839C33.9769 5.40289 34.0372 5.42803 34.0961 5.45382L53.2449 13.8447C53.3037 13.8705 53.3611 13.8969 53.417 13.9239C53.4729 13.9509 53.5272 13.9785 53.58 14.0067C53.6328 14.0349 53.684 14.0637 53.7336 14.093C53.7832 14.1222 53.8311 14.152 53.8773 14.1824C53.9236 14.2127 53.9681 14.2435 54.0109 14.2748C54.0536 14.3061 54.0946 14.3378 54.1339 14.3699C54.1731 14.4021 54.2105 14.4347 54.2461 14.4676C54.2817 14.5006 54.3154 14.5339 54.3473 14.5676C54.3791 14.6013 54.4091 14.6354 54.4371 14.6697C54.4652 14.704 54.4913 14.7387 54.5154 14.7736C54.5396 14.8085 54.5618 14.8436 54.582 14.879C54.6022 14.9143 54.6204 14.9499 54.6367 14.9857C54.6529 15.0215 54.6672 15.0574 54.6794 15.0935C54.6916 15.1295 54.7017 15.1657 54.7099 15.202C54.7181 15.2383 54.7242 15.2747 54.7282 15.3111C54.7324 15.3475 54.7344 15.384 54.7344 15.4204C54.7344 15.4569 54.7324 15.4934 54.7283 15.5298C54.7242 15.5662 54.7181 15.6026 54.7099 15.6389C54.7017 15.6752 54.6916 15.7113 54.6793 15.7474C54.6671 15.7835 54.6529 15.8194 54.6367 15.8552C54.6204 15.891 54.6022 15.9265 54.582 15.9619C54.5618 15.9973 54.5396 16.0324 54.5154 16.0673C54.4912 16.1022 54.4651 16.1368 54.4371 16.1712C54.4091 16.2055 54.3791 16.2395 54.3473 16.2732C54.3154 16.3069 54.2817 16.3403 54.2461 16.3732C54.2105 16.4062 54.1731 16.4388 54.1339 16.4709C54.0947 16.5031 54.0537 16.5348 54.0109 16.5661C53.9681 16.5974 53.9235 16.6282 53.8773 16.6585C53.8311 16.6888 53.7831 16.7186 53.7336 16.7479C53.684 16.7772 53.6328 16.806 53.58 16.8342C53.5272 16.8623 53.4728 16.89 53.4169 16.917C53.3611 16.944 53.3037 16.9704 53.2449 16.9962L34.0961 25.3871C34.0372 25.4129 33.9769 25.438 33.9152 25.4625C33.8536 25.487 33.7906 25.5108 33.7263 25.5339C33.6619 25.5571 33.5963 25.5795 33.5294 25.6012C33.4626 25.6229 33.3946 25.6439 33.3254 25.6642C33.2562 25.6844 33.1859 25.704 33.1145 25.7227C33.0432 25.7415 32.9708 25.7594 32.8973 25.7766C32.824 25.7938 32.7496 25.8102 32.6744 25.8258C32.5991 25.8414 32.5231 25.8562 32.4462 25.8701C32.3693 25.8841 32.2916 25.8972 32.2133 25.9095C32.1349 25.9218 32.0559 25.9332 31.9762 25.9438C31.8966 25.9544 31.8164 25.9641 31.7357 25.973C31.655 25.9818 31.5738 25.9898 31.4922 25.9969C31.4105 26.0041 31.3285 26.0103 31.2462 26.0156C31.1639 26.021 31.0813 26.0255 30.9985 26.029C30.9156 26.0326 30.8327 26.0353 30.7496 26.0371C30.6664 26.0389 30.5832 26.0398 30.5 26.0397C30.4168 26.0398 30.3336 26.0389 30.2504 26.0371C30.1673 26.0353 30.0844 26.0326 30.0015 26.029C29.9187 26.0255 29.8361 26.021 29.7538 26.0156C29.6715 26.0103 29.5895 26.0041 29.5078 25.9969C29.4262 25.9898 29.345 25.9818 29.2643 25.973C29.1836 25.9641 29.1034 25.9544 29.0238 25.9438C28.9441 25.9332 28.8651 25.9218 28.7867 25.9095C28.7084 25.8972 28.6307 25.8841 28.5538 25.8701C28.4769 25.8562 28.4009 25.8414 28.3256 25.8258C28.2504 25.8102 28.176 25.7938 28.1027 25.7766C28.0292 25.7594 27.9568 25.7415 27.8855 25.7227C27.8141 25.704 27.7438 25.6844 27.6746 25.6642C27.6054 25.6439 27.5374 25.6229 27.4706 25.6012C27.4037 25.5795 27.3381 25.5571 27.2737 25.5339C27.2094 25.5108 27.1464 25.487 27.0848 25.4625C27.0231 25.438 26.9628 25.4129 26.9039 25.3871L7.75513 16.9962C7.69628 16.9704 7.63892 16.944 7.58305 16.917C7.52715 16.89 7.47279 16.8623 7.41998 16.8342C7.3672 16.806 7.31602 16.7772 7.26644 16.7479C7.21685 16.7186 7.16894 16.6888 7.12268 16.6585C7.07647 16.6282 7.03195 16.5974 6.98912 16.5661C6.94634 16.5348 6.90534 16.5031 6.86612 16.4709C6.82686 16.4388 6.78946 16.4062 6.75391 16.3732C6.71831 16.3403 6.68458 16.3069 6.6527 16.2732C6.62087 16.2395 6.59093 16.2055 6.5629 16.1712C6.53487 16.1368 6.50877 16.1022 6.4846 16.0673C6.46043 16.0324 6.43822 15.9973 6.41799 15.9619C6.3978 15.9265 6.37958 15.891 6.36333 15.8552C6.34708 15.8194 6.33286 15.7835 6.32066 15.7474C6.30844 15.7113 6.29826 15.6752 6.29012 15.6389C6.28195 15.6026 6.27582 15.5662 6.27173 15.5298C6.26764 15.4934 6.2656 15.4569 6.26562 15.4204C6.2656 15.384 6.26765 15.3475 6.27175 15.3111C6.27583 15.2747 6.28195 15.2383 6.29012 15.202C6.29826 15.1657 6.30843 15.1295 6.32064 15.0935C6.33285 15.0574 6.34708 15.0215 6.36333 14.9857C6.37958 14.9499 6.39781 14.9143 6.41801 14.879C6.43822 14.8436 6.46041 14.8085 6.48457 14.7736C6.50873 14.7387 6.53484 14.704 6.5629 14.6697C6.59092 14.6354 6.62086 14.6013 6.65272 14.5676C6.68457 14.5339 6.7183 14.5006 6.75389 14.4676C6.78948 14.4347 6.82689 14.4021 6.8661 14.3699C6.90536 14.3378 6.94636 14.3061 6.98912 14.2748C7.03192 14.2435 7.07644 14.2127 7.1227 14.1824C7.16891 14.152 7.21681 14.1222 7.26639 14.093C7.31597 14.0637 7.36717 14.0349 7.41997 14.0067C7.47278 13.9785 7.52713 13.9509 7.58302 13.9239C7.63891 13.8969 7.69628 13.8705 7.75513 13.8447Z" fill="url(#paint1_linear_155_1827)"/>
<g filter="url(#filter0_d_155_1827)">
<path d="M51.2955 18.8182C51.3409 18.8182 51.3862 18.8199 51.4313 18.8233C51.4765 18.8266 51.5214 18.8316 51.5659 18.8383C51.6105 18.845 51.6544 18.8533 51.6979 18.8633C51.7413 18.8732 51.784 18.8847 51.826 18.8978C51.8679 18.9109 51.9089 18.9255 51.949 18.9417C51.989 18.9578 52.0279 18.9754 52.0657 18.9944C52.1034 19.0135 52.1399 19.0338 52.175 19.0555C52.2101 19.0773 52.2437 19.1002 52.2758 19.1244C52.3079 19.1487 52.3383 19.174 52.3671 19.2005C52.3959 19.2269 52.4229 19.2544 52.4482 19.2829C52.4734 19.3113 52.4967 19.3407 52.5181 19.3709C52.5395 19.4011 52.5589 19.432 52.5763 19.4636C52.5937 19.4952 52.6089 19.5274 52.6221 19.5602C52.6353 19.593 52.6463 19.6262 52.6552 19.6597C52.664 19.6933 52.6707 19.7271 52.6751 19.7612C52.6796 19.7953 52.6818 19.8295 52.6818 19.8637V33.9773C52.6818 34.0116 52.6796 34.0457 52.6751 34.0798C52.6707 34.1139 52.664 34.1477 52.6552 34.1813C52.6463 34.2149 52.6353 34.248 52.6221 34.2808C52.6089 34.3136 52.5937 34.3458 52.5763 34.3774C52.5589 34.409 52.5395 34.4399 52.5181 34.4702C52.4967 34.5003 52.4734 34.5297 52.4482 34.5581C52.4229 34.5866 52.3959 34.6141 52.3671 34.6406C52.3383 34.667 52.3079 34.6924 52.2758 34.7166C52.2437 34.7408 52.2101 34.7638 52.175 34.7855C52.1399 34.8072 52.1034 34.8276 52.0657 34.8466C52.0279 34.8656 51.989 34.8832 51.949 34.8993C51.9089 34.9155 51.8679 34.9301 51.826 34.9432C51.784 34.9563 51.7413 34.9678 51.6979 34.9778C51.6544 34.9877 51.6105 34.996 51.5659 35.0027C51.5214 35.0094 51.4765 35.0144 51.4313 35.0178C51.3862 35.0211 51.3409 35.0228 51.2955 35.0228C51.25 35.0228 51.2048 35.0211 51.1596 35.0178C51.1144 35.0144 51.0695 35.0094 51.025 35.0027C50.9805 34.996 50.9365 34.9877 50.893 34.9778C50.8496 34.9678 50.8069 34.9563 50.7649 34.9432C50.723 34.9301 50.682 34.9155 50.6419 34.8993C50.6019 34.8832 50.563 34.8656 50.5252 34.8466C50.4875 34.8276 50.451 34.8072 50.4159 34.7855C50.3809 34.7638 50.3473 34.7408 50.3151 34.7166C50.283 34.6924 50.2526 34.667 50.2238 34.6406C50.195 34.6141 50.168 34.5866 50.1427 34.5581C50.1175 34.5297 50.0942 34.5003 50.0728 34.4702C50.0514 34.4399 50.032 34.409 50.0146 34.3774C49.9972 34.3458 49.982 34.3136 49.9688 34.2808C49.9556 34.248 49.9446 34.2149 49.9357 34.1813C49.9269 34.1477 49.9202 34.1139 49.9158 34.0798C49.9113 34.0457 49.9091 34.0116 49.9091 33.9773V19.8637C49.9091 19.8295 49.9113 19.7953 49.9158 19.7612C49.9202 19.7271 49.9269 19.6933 49.9357 19.6597C49.9446 19.6262 49.9556 19.593 49.9688 19.5602C49.982 19.5274 49.9972 19.4952 50.0146 19.4636C50.032 19.432 50.0514 19.4011 50.0728 19.3709C50.0942 19.3407 50.1175 19.3113 50.1427 19.2829C50.168 19.2544 50.195 19.2269 50.2238 19.2005C50.2526 19.174 50.283 19.1487 50.3151 19.1244C50.3473 19.1002 50.3809 19.0773 50.4159 19.0555C50.451 19.0338 50.4875 19.0135 50.5252 18.9944C50.563 18.9754 50.6019 18.9578 50.6419 18.9417C50.682 18.9255 50.723 18.9109 50.7649 18.8978C50.8069 18.8847 50.8496 18.8732 50.893 18.8633C50.9365 18.8533 50.9805 18.845 51.025 18.8383C51.0695 18.8316 51.1144 18.8266 51.1596 18.8233C51.2048 18.8199 51.25 18.8182 51.2955 18.8182Z" fill="url(#paint2_linear_155_1827)"/>
</g>
<defs>
<filter id="filter0_d_155_1827" x="32.9091" y="3.81824" width="36.7727" height="50.2046" filterUnits="userSpaceOnUse" color-interpolation-filters="sRGB">
<feFlood flood-opacity="0" result="BackgroundImageFix"/>
<feColorMatrix in="SourceAlpha" type="matrix" values="0 0 0 0 0 0 0 0 0 0 0 0 0 0 0 0 0 0 127 0" result="hardAlpha"/>
<feMorphology radius="1" operator="dilate" in="SourceAlpha" result="effect1_dropShadow_155_1827"/>
<feOffset dy="2"/>
<feGaussianBlur stdDeviation="8"/>
<feColorMatrix type="matrix" values="0 0 0 0 1 0 0 0 0 0.8635 0 0 0 0 0.5125 0 0 0 0.5 0"/>
<feBlend mode="normal" in2="BackgroundImageFix" result="effect1_dropShadow_155_1827"/>
<feBlend mode="normal" in="SourceGraphic" in2="effect1_dropShadow_155_1827" result="shape"/>
</filter>
<linearGradient id="paint0_linear_155_1827" x1="30.5" y1="12.5454" x2="30.5" y2="40.2776" gradientUnits="userSpaceOnUse">
<stop offset="0.734375" stop-color="#006688" stop-opacity="0.9"/>
</linearGradient>
<linearGradient id="paint1_linear_155_1827" x1="30.5" y1="3.65907" x2="30.5" y2="27.1818" gradientUnits="userSpaceOnUse">
<stop offset="1" stop-color="#006688"/>
</linearGradient>
<linearGradient id="paint2_linear_155_1827" x1="51.2955" y1="18.8182" x2="51.2955" y2="35.0228" gradientUnits="userSpaceOnUse">
<stop stop-color="#FFF38A"/>
<stop offset="1" stop-color="#FFCA42"/>
</linearGradient>
</defs>
</svg>
