<svg width="30" height="40" viewBox="0 0 30 40" fill="none" xmlns="http://www.w3.org/2000/svg">
<path fill-rule="evenodd" clip-rule="evenodd" d="M4.50864 0.134155C2.12785 0.134155 0.19783 2.17746 0.19783 4.69799V34.5703C0.19783 37.0909 2.12785 39.1342 4.50864 39.1342H24.887C27.2678 39.1342 29.1978 37.0909 29.1978 34.5703V4.69799C29.1978 2.17746 27.2678 0.134155 24.887 0.134155H4.50864ZM7.64378 5.11288C6.12872 5.11288 4.90053 6.41316 4.90053 8.01713C4.90053 9.62111 6.12872 10.9214 7.64378 10.9214C9.15883 10.9214 10.387 9.62111 10.387 8.01713C10.387 6.41316 9.15883 5.11288 7.64378 5.11288ZM4.90053 19.6342C4.90053 18.0302 6.12872 16.7299 7.64378 16.7299C9.15883 16.7299 10.387 18.0302 10.387 19.6342C10.387 21.2381 9.15883 22.5384 7.64378 22.5384C6.12872 22.5384 4.90053 21.2381 4.90053 19.6342ZM7.64378 28.3469C6.12872 28.3469 4.90053 29.6472 4.90053 31.2512C4.90053 32.8552 6.12872 34.1554 7.64378 34.1554C9.15883 34.1554 10.387 32.8552 10.387 31.2512C10.387 29.6472 9.15883 28.3469 7.64378 28.3469ZM15.4816 6.77245C14.8323 6.77245 14.3059 7.32972 14.3059 8.01713C14.3059 8.70455 14.8323 9.26182 15.4816 9.26182H24.887C25.5363 9.26182 26.0627 8.70455 26.0627 8.01713C26.0627 7.32972 25.5363 6.77245 24.887 6.77245H15.4816ZM14.3059 19.6342C14.3059 18.9468 14.8323 18.3895 15.4816 18.3895H24.887C25.5363 18.3895 26.0627 18.9468 26.0627 19.6342C26.0627 20.3216 25.5363 20.8788 24.887 20.8788H15.4816C14.8323 20.8788 14.3059 20.3216 14.3059 19.6342ZM15.4816 30.0065C14.8323 30.0065 14.3059 30.5638 14.3059 31.2512C14.3059 31.9386 14.8323 32.4959 15.4816 32.4959H24.887C25.5363 32.4959 26.0627 31.9386 26.0627 31.2512C26.0627 30.5638 25.5363 30.0065 24.887 30.0065H15.4816Z" fill="#006688"/>
</svg>
