<svg width="85" height="84" viewBox="0 0 85 84" fill="none" xmlns="http://www.w3.org/2000/svg">
<g filter="url(#filter0_d_155_1795)">
<rect x="20.5447" y="12.2683" width="43.9106" height="43.4634" rx="21.7317" fill="url(#paint0_linear_155_1795)"/>
</g>
<path fill-rule="evenodd" clip-rule="evenodd" d="M36.4981 22.8049C35.0361 22.8049 33.851 23.978 33.851 25.4251V42.575C33.851 44.0221 35.0361 45.1952 36.4981 45.1952H49.0116C50.4736 45.1952 51.6587 44.0221 51.6587 42.575V25.4251C51.6587 23.978 50.4736 22.8049 49.0116 22.8049H36.4981ZM38.4232 25.6633C37.4929 25.6633 36.7387 26.4098 36.7387 27.3306C36.7387 28.2515 37.4929 28.998 38.4232 28.998C39.3536 28.998 40.1077 28.2515 40.1077 27.3306C40.1077 26.4098 39.3536 25.6633 38.4232 25.6633ZM36.7387 34.0001C36.7387 33.0792 37.4929 32.3327 38.4232 32.3327C39.3536 32.3327 40.1077 33.0792 40.1077 34.0001C40.1077 34.9209 39.3536 35.6674 38.4232 35.6674C37.4929 35.6674 36.7387 34.9209 36.7387 34.0001ZM38.4232 39.0021C37.4929 39.0021 36.7387 39.7486 36.7387 40.6695C36.7387 41.5903 37.4929 42.3368 38.4232 42.3368C39.3536 42.3368 40.1077 41.5903 40.1077 40.6695C40.1077 39.7486 39.3536 39.0021 38.4232 39.0021ZM43.2361 26.616C42.8374 26.616 42.5142 26.936 42.5142 27.3306C42.5142 27.7253 42.8374 28.0452 43.2361 28.0452H49.0116C49.4103 28.0452 49.7335 27.7253 49.7335 27.3306C49.7335 26.936 49.4103 26.616 49.0116 26.616H43.2361ZM42.5142 34.0001C42.5142 33.6054 42.8374 33.2855 43.2361 33.2855H49.0116C49.4103 33.2855 49.7335 33.6054 49.7335 34.0001C49.7335 34.3947 49.4103 34.7146 49.0116 34.7146H43.2361C42.8374 34.7146 42.5142 34.3947 42.5142 34.0001ZM43.2361 39.9549C42.8374 39.9549 42.5142 40.2748 42.5142 40.6695C42.5142 41.0641 42.8374 41.3841 43.2361 41.3841H49.0116C49.4103 41.3841 49.7335 41.0641 49.7335 40.6695C49.7335 40.2748 49.4103 39.9549 49.0116 39.9549H43.2361Z" fill="white"/>
<defs>
<filter id="filter0_d_155_1795" x="0.544693" y="0.268311" width="83.9106" height="83.4634" filterUnits="userSpaceOnUse" color-interpolation-filters="sRGB">
<feFlood flood-opacity="0" result="BackgroundImageFix"/>
<feColorMatrix in="SourceAlpha" type="matrix" values="0 0 0 0 0 0 0 0 0 0 0 0 0 0 0 0 0 0 127 0" result="hardAlpha"/>
<feMorphology radius="2" operator="erode" in="SourceAlpha" result="effect1_dropShadow_155_1795"/>
<feOffset dy="8"/>
<feGaussianBlur stdDeviation="11"/>
<feColorMatrix type="matrix" values="0 0 0 0 0.971137 0 0 0 0 0.341921 0 0 0 0 0.36709 0 0 0 0.3 0"/>
<feBlend mode="normal" in2="BackgroundImageFix" result="effect1_dropShadow_155_1795"/>
<feBlend mode="normal" in="SourceGraphic" in2="effect1_dropShadow_155_1795" result="shape"/>
</filter>
<linearGradient id="paint0_linear_155_1795" x1="29.5264" y1="12.2683" x2="50.1365" y2="55.8958" gradientUnits="userSpaceOnUse">
<stop stop-color="#006688"/>
</linearGradient>
</defs>
</svg>
