<svg width="64" height="64" viewBox="0 0 64 64" fill="none" xmlns="http://www.w3.org/2000/svg">
<path d="M39.2 16.8001C38.7114 17.2986 38.4377 17.9688 38.4377 18.6668C38.4377 19.3648 38.7114 20.035 39.2 20.5334L43.4666 24.8001C43.9651 25.2887 44.6353 25.5624 45.3333 25.5624C46.0313 25.5624 46.7015 25.2887 47.2 24.8001L57.2533 14.7468C58.5942 17.7099 59.0002 21.0114 58.4172 24.2112C57.8342 27.4109 56.2899 30.357 53.9901 32.6569C51.6902 34.9567 48.7441 36.501 45.5444 37.084C42.3446 37.667 39.0432 37.261 36.08 35.9201L17.6533 54.3468C16.5924 55.4076 15.1536 56.0036 13.6533 56.0036C12.153 56.0036 10.7142 55.4076 9.65331 54.3468C8.59245 53.2859 7.99646 51.8471 7.99646 50.3468C7.99646 48.8465 8.59245 47.4076 9.65331 46.3468L28.08 27.9201C26.7391 24.9569 26.3331 21.6555 26.9161 18.4557C27.4991 15.256 29.0434 12.3099 31.3432 10.01C33.6431 7.71021 36.5892 6.16589 39.7889 5.58289C42.9887 4.99988 46.2901 5.40588 49.2533 6.74678L39.2266 16.7734L39.2 16.8001Z" stroke="black" stroke-opacity="0.6" stroke-width="4" stroke-linecap="round" stroke-linejoin="round"/>
</svg>
